<mxfile host="app.diagrams.net" modified="2024-05-31T08:35:47.324Z" agent="Mozilla/5.0 (Windows NT 10.0; Win64; x64) AppleWebKit/537.36 (KHTML, like Gecko) Chrome/125.0.0.0 Safari/537.36 Edg/125.0.0.0" etag="eRejjpy5qdW6yeo2wpL3" version="24.4.10" type="github">
  <diagram name="Page-1" id="2YBvvXClWsGukQMizWep">
    <mxGraphModel dx="2565" dy="470" grid="1" gridSize="10" guides="1" tooltips="1" connect="1" arrows="1" fold="1" page="1" pageScale="1" pageWidth="850" pageHeight="1100" math="0" shadow="0">
      <root>
        <mxCell id="0" />
        <mxCell id="1" parent="0" />
        <mxCell id="aM9ryv3xv72pqoxQDRHE-1" value=":FactoryDataManager.cpp" style="shape=umlLifeline;perimeter=lifelinePerimeter;whiteSpace=wrap;html=1;container=0;dropTarget=0;collapsible=0;recursiveResize=0;outlineConnect=0;portConstraint=eastwest;newEdgeStyle={&quot;edgeStyle&quot;:&quot;elbowEdgeStyle&quot;,&quot;elbow&quot;:&quot;vertical&quot;,&quot;curved&quot;:0,&quot;rounded&quot;:0};" parent="1" vertex="1">
          <mxGeometry x="80" y="160" width="100" height="300" as="geometry" />
        </mxCell>
        <mxCell id="aM9ryv3xv72pqoxQDRHE-2" value="" style="html=1;points=[];perimeter=orthogonalPerimeter;outlineConnect=0;targetShapes=umlLifeline;portConstraint=eastwest;newEdgeStyle={&quot;edgeStyle&quot;:&quot;elbowEdgeStyle&quot;,&quot;elbow&quot;:&quot;vertical&quot;,&quot;curved&quot;:0,&quot;rounded&quot;:0};" parent="aM9ryv3xv72pqoxQDRHE-1" vertex="1">
          <mxGeometry x="45" y="70" width="10" height="190" as="geometry" />
        </mxCell>
        <mxCell id="bgxjPIGCzItHr8cQw2t1-10" value="" style="html=1;points=[[0,0,0,0,5],[0,1,0,0,-5],[1,0,0,0,5],[1,1,0,0,-5]];perimeter=orthogonalPerimeter;outlineConnect=0;targetShapes=umlLifeline;portConstraint=eastwest;newEdgeStyle={&quot;curved&quot;:0,&quot;rounded&quot;:0};" vertex="1" parent="aM9ryv3xv72pqoxQDRHE-1">
          <mxGeometry x="55" y="100" width="10" height="40" as="geometry" />
        </mxCell>
        <mxCell id="bgxjPIGCzItHr8cQw2t1-11" value="if(mOverlayWBMode)" style="html=1;align=left;spacingLeft=2;endArrow=block;rounded=0;edgeStyle=orthogonalEdgeStyle;curved=0;rounded=0;" edge="1" target="bgxjPIGCzItHr8cQw2t1-10" parent="aM9ryv3xv72pqoxQDRHE-1">
          <mxGeometry relative="1" as="geometry">
            <mxPoint x="60" y="80" as="sourcePoint" />
            <Array as="points">
              <mxPoint x="90" y="110" />
            </Array>
          </mxGeometry>
        </mxCell>
        <mxCell id="aM9ryv3xv72pqoxQDRHE-5" value=":Object" style="shape=umlLifeline;perimeter=lifelinePerimeter;whiteSpace=wrap;html=1;container=0;dropTarget=0;collapsible=0;recursiveResize=0;outlineConnect=0;portConstraint=eastwest;newEdgeStyle={&quot;edgeStyle&quot;:&quot;elbowEdgeStyle&quot;,&quot;elbow&quot;:&quot;vertical&quot;,&quot;curved&quot;:0,&quot;rounded&quot;:0};" parent="1" vertex="1">
          <mxGeometry x="320" y="150" width="100" height="300" as="geometry" />
        </mxCell>
        <mxCell id="aM9ryv3xv72pqoxQDRHE-6" value="" style="html=1;points=[];perimeter=orthogonalPerimeter;outlineConnect=0;targetShapes=umlLifeline;portConstraint=eastwest;newEdgeStyle={&quot;edgeStyle&quot;:&quot;elbowEdgeStyle&quot;,&quot;elbow&quot;:&quot;vertical&quot;,&quot;curved&quot;:0,&quot;rounded&quot;:0};" parent="aM9ryv3xv72pqoxQDRHE-5" vertex="1">
          <mxGeometry x="45" y="80" width="10" height="170" as="geometry" />
        </mxCell>
        <mxCell id="aM9ryv3xv72pqoxQDRHE-7" value="setWBColorTemperatureModeToIni" style="html=1;verticalAlign=bottom;endArrow=block;edgeStyle=elbowEdgeStyle;elbow=horizontal;curved=0;rounded=0;" parent="1" edge="1">
          <mxGeometry relative="1" as="geometry">
            <mxPoint x="135" y="360" as="sourcePoint" />
            <Array as="points">
              <mxPoint x="280" y="360" />
            </Array>
            <mxPoint x="365" y="360" as="targetPoint" />
            <mxPoint as="offset" />
          </mxGeometry>
        </mxCell>
        <mxCell id="bgxjPIGCzItHr8cQw2t1-4" value=":Object" style="shape=umlLifeline;perimeter=lifelinePerimeter;whiteSpace=wrap;html=1;container=0;dropTarget=0;collapsible=0;recursiveResize=0;outlineConnect=0;portConstraint=eastwest;newEdgeStyle={&quot;edgeStyle&quot;:&quot;elbowEdgeStyle&quot;,&quot;elbow&quot;:&quot;vertical&quot;,&quot;curved&quot;:0,&quot;rounded&quot;:0};" vertex="1" parent="1">
          <mxGeometry x="440" y="150" width="100" height="300" as="geometry" />
        </mxCell>
        <mxCell id="bgxjPIGCzItHr8cQw2t1-5" value="" style="html=1;points=[];perimeter=orthogonalPerimeter;outlineConnect=0;targetShapes=umlLifeline;portConstraint=eastwest;newEdgeStyle={&quot;edgeStyle&quot;:&quot;elbowEdgeStyle&quot;,&quot;elbow&quot;:&quot;vertical&quot;,&quot;curved&quot;:0,&quot;rounded&quot;:0};" vertex="1" parent="bgxjPIGCzItHr8cQw2t1-4">
          <mxGeometry x="45" y="80" width="10" height="170" as="geometry" />
        </mxCell>
        <mxCell id="bgxjPIGCzItHr8cQw2t1-6" value=":Object" style="shape=umlLifeline;perimeter=lifelinePerimeter;whiteSpace=wrap;html=1;container=0;dropTarget=0;collapsible=0;recursiveResize=0;outlineConnect=0;portConstraint=eastwest;newEdgeStyle={&quot;edgeStyle&quot;:&quot;elbowEdgeStyle&quot;,&quot;elbow&quot;:&quot;vertical&quot;,&quot;curved&quot;:0,&quot;rounded&quot;:0};" vertex="1" parent="1">
          <mxGeometry x="560" y="150" width="100" height="300" as="geometry" />
        </mxCell>
        <mxCell id="bgxjPIGCzItHr8cQw2t1-7" value="" style="html=1;points=[];perimeter=orthogonalPerimeter;outlineConnect=0;targetShapes=umlLifeline;portConstraint=eastwest;newEdgeStyle={&quot;edgeStyle&quot;:&quot;elbowEdgeStyle&quot;,&quot;elbow&quot;:&quot;vertical&quot;,&quot;curved&quot;:0,&quot;rounded&quot;:0};" vertex="1" parent="bgxjPIGCzItHr8cQw2t1-6">
          <mxGeometry x="45" y="80" width="10" height="170" as="geometry" />
        </mxCell>
        <mxCell id="bgxjPIGCzItHr8cQw2t1-8" value="&lt;div&gt;vendor\aw\homlet\&lt;/div&gt;&lt;div&gt;tvsystem\tvserver\&lt;/div&gt;&lt;div&gt;1.0\default\PQ&lt;/div&gt;&lt;div&gt;&lt;br&gt;&lt;/div&gt;" style="shape=callout;whiteSpace=wrap;html=1;perimeter=calloutPerimeter;" vertex="1" parent="1">
          <mxGeometry x="100" y="50" width="120" height="100" as="geometry" />
        </mxCell>
        <mxCell id="bgxjPIGCzItHr8cQw2t1-9" value="" style="shape=image;verticalLabelPosition=bottom;labelBackgroundColor=default;verticalAlign=top;aspect=fixed;imageAspect=0;image=data:image/png,iVBORw0KGgoAAAANSUhEUgAABIMAAAF7CAIAAADOkNxzAAAgAElEQVR4Aex9O4sl2XZm/J/iwkWMIeI3lHON68iQMUZYZcmSJQ6M1epmiIt6+giBWrTR3Ds0KdGCPmJoRqTSmVE5GgSVII5TyLhGpV12zF3PvfYzIs4rT55cRdMZsR/r8e0dcdYXa8eObnpd/7pp8v9uHoHXNafdW0fAEXAEHAFHwBFwBByBl4hA9xKNPsLmmych7uBrm9JHXA3e1RFwBBwBR8ARcAQcAUfg+RB4bWGrE5XXgMDzXU+u2RFwBBwBR8ARcAQcAUfAEViGgDOx18BMXpuPy+a+t5pH4GnsN10X/Tfs5rt5C0fgZAjs7mgG9uPTyWS6IEfAEXAEHAFH4DoQcCb22ljKa/D3Oq4ttuJpv3sYhm03POZm7cctRpl3JXbDLIgCUGkZkaK+3w7j4z6XO037/ePQb3slUfWWpd5aVmBib7+4//BJG5z84HFQm8sHRaxObsYVCmxNpOcydzfIhDTTu1h4uIXCxN68++n9x8+L5Zx6Iu0fwtWUzsztWLwIl9m6G/Am0N8dI2SZKm/lCDgCjoAjcHUIOBN7Dczktfl4TZeZBnC//scCg+Eo85sSu+FQ8u0X9+8/fi4yMc5W/dE//XvsMcd2aby4+fXffVoeyYrIzx/f39/f33/xlmPu52ZiRazE2Bv+255Iz+R4IF3dN18wQTcU6O0PhTm/1tRzMbGVE0nxzy6rrvvq3fdrSKJFwIh982f/ZwXTtEL82BFwBBwBR+DFIuBM7LWxlNfg7zVdjhppFaPSZUzsw6dJmdjbL4AXwb/vf3grQeHb34QQTltCgPjFT9L4py/efvWuRPgWgqUx95mZ2DRNnz6w0ergN+o01pwzJ7cQjss3a0+ky9uDGnVWIBvBcVE7u01XnPNrTT2QiZ1hIvFDieK0PJSJTdPuv/4GHqm8+ebd9/DMZS083t4RcAQcAUfgRSNwRUyMf8HPu/joNfAQ9/GaLkkNTItRKUeZX737PmcXISeWMDFtuv/Lv6K0WGBHqg6e09/f37//qGmwz58/fXj/8dCFhRpzB11nh1mzKyvTF2c37DkU6MgWJ9JzWDRNE82KN2++6rrNm3f//PFzeGSA7OK7wrxea+rhTEw1nXYinVYaGPnpA+ad339oEbHd3aa7S5Y4X+RHU2H0gwICMD3PG7QUlHqRIzCLwCu7OTzedZvDL0S4u242x0iYHY9mg6tjYv3DmhX3+BqLeUOh6StUdvuxS//13f7Ij4ztu3Ho+uPltM3YxYb33bBbTLrWWrjvetQ27lGFnK7Q2PblvLWz06DVYOkbVvvHcYhfxNqZHQUkfOQFhJK8klN5sYRvlsXVTRTwAaGqMjF+zWyj7CgkxN7+ADSs+YSdPBWTNl2/HXZPtctvloktkCZvncEV+2SWUG6H8mYMC0LeJaMwPO53d/SSTz887Kenkd7M6bZh9xEeLxgXaCz7lPT9wy5HpK0UJtdiT/dPu/Gu7+l1QVz/mbzRt3AiASsq7WxRKFxs2zRNM56yqLfvvvsFZsDef/xP3OLlb969A27WvfnOrtpbMEPwwkyUyrWTvieWNMPZW7mw5yfSUttAQVNadSLdxRNJhciLdt0mzMbcjf3Dtttss8uE7h9n/tE0g7JOE3TkO9L6jjkGtRKAXG6o2gYKIS4Ld0SaR8EQmrymIw3dmnACtIki1fwsBzSdDg9EG0YfCG+4IfEvTECelUVDI7BHhd2m0178Uxkul5rYhiunq6Kbjxp3OsEnlHS5m8N6o6NhPhGMT+P2QCqFd9ezXDyLkWkxMV6LUVoPpOuH7u9P8CLAYmuzhngzlWs4qy0UnIeJEUe6MBNDptSPy8jYWguF9bF8Ob15JhbdICQE7LrNL//iPyJSU/tZ+NN/40lHv+pGQiA8UCjUi+XwKWnnPeJKVV1nSNdOthB48933fBlKkI3N2ldmzdPuv/zv5K0z8qjNxJZJE/Pefvful+kv6i//4j+z61Wj1UpObOEovPnqTRiIr34Rqf6bv6YkIY/XV2/e/Pd4pDZd991v7djPKgU3FnoqzYJ5Assfff8PjDvzq8wqaikTyTCxiLHIPDSFonR2FOY9ZVFvv/jh1+DCN198+L+w4cqvfrj/4m/BYMPEls2QLHA2yBgXpmneNjubZibSQttEYlNaayL9rZlIKkRG3Fzaokj/wuPezZrfOe1ZOMBBWy2M/FofMzG26zsWLK8UwVwwhIpagb3KxDTIQt/ZFp68uiUn3+HWIiOKKsZdqJimk/p5Sq0HwktMTMcFDQzYEvhaC43pQQTOF/XDjpf6BIU6alp62YNDL4fLWrleGwIehmm9gIU9olvu6W4OSMbShQOzJkGv/sE8R5/tcfoGVSaGXEuWQcFJeL4OZ1JD73To2ekNbEtcPW+EiQ3LCMzC1M1anrNQbNIs1rKT5B6nrZLGyWncd0pq81Ns3/ddh0Dthq7rIUu2lPjlAi9a0p40jVoJj9588wUs7YN/338Pb1i9jfZty5v9FDa04NBeXnf6/jumAZCksv/wguKAkuJpnM0Yv/49LPMiohWRtEI4/uY7eIeKr04xDJcmtq5K+iFBXeLpT+/ecFD45s/+n6UehFeLiS2VJg5ieP0nv8F32BSfN9+B19E/dafIxKQ2DFY2CmrYL3779/fBwV/95qd71ivrQrVlt+l+8VvC5HtK7EC253/Jos4FSsGFhZ4+jcP/+JM/++F7mWz39z+9051RfiMDSM+9FKjiRDqAic2MwhJP2c23X9z/9Z/i84V3QMB++e6n+7/+HufqN1/QzFR433zXmm/azL7i+MU3NO0NE1tim51J0r4rTSRV2rYtyFsmDSbS36CzZlrKriYojMZ1fi+cw8KLYG9yhIO2OtgilE4XMyVGHXNaogoQ6aGxcWRPTJ8C/ceh247jnWxq+zj0D7uxvMdtyzoARplDq+FZ62hOnsWOA+FNmBgtZGYDcVAMDTPQ1MdLG8EEdiamcJz04LCbw8EmnP6ucshDq2tmYhHbmiZMj0lgEMPeqIobNs70p22T3NT4fspB6SYsQggl4ZFi117fgfpbTCxZuNj33Y7W5hGLwAV+vECw70ZcGZh00eWDOyEeu5GX+XVd1w9hGSRwmw6XF+64AZGcERcFRoRHSZQeiHDbOLFEjU/KEwuTWu01oa4Ryd5u6oauG9ARMqzaa+rIpN2+G2h1Y9cpUWz0mqaOAFHzEB1my/sdrPykf0sw1IlGk6QYPJSrwqz65ou//2BesII3rPQdDvytoLzW/f17bfZvf0rP79/+EF0oKrP8eg9NfaJbehl89e7vP37mjt/g1onNXMGvfvxX9tlIsMvCFBE+4AAaU3P2VbJ/+xNOQXxjdgDhPnUmtlyatoTMHqbTPwNp+WO6hiVqD9aqO4UAetEoSJAN6t5//Afacp1SiP/6v2m94lviCtIS0jjh9brH/yqAUAi9SCnYv9zTzx9han36rCR09z+VeKyZSGExkGEsxcJFti3zlAcIFsf+FnJ3mFEcYeeJvyMvaOBUI767GF5dTOebnWNhXsrQqF/LbAvTqLmecKltRlxrWuoaUcgQwkTC+0NtTFGo9ToacVYJsUW+LjGskTzzj6agHf3Q4u80QxcFxSa0ijpGd2HqeLfbPwy8DLgclRvMW4d4p0yWdoLyJUxs/zgQj9rd9eOT9gJ1eueGe0DCcXQKECq21lbZ8ooHiNLdSOvM+7sdr6NWQHD1Mt+FNri4WgVFVXjTCPqiJdZD+UsnKqh9cCC8DSaG4195FkB46FddklO0FLpHkw4tjEroBowqeEzDaCq05PYh45VcCzQ/2pdDNufjr1accLzArapTVTQCPpFzyWWVzhT63GgEfe0O0G36PlmhLT9P0c2BTNdBotMVE/uA51ZXzMSAXoUk2ERULCrQISkwMSyK+2vz1kF+1WFJuA/Cb1Y0aq1LuqhJmJgN+SU/llAFaKILDuVFqdAPqwpdsAUxsQK7EIHKxJCRsVRY+1ehW8UqElJkR2p828JCrfFrRJZI/98hAm1dkzCxgJLBsKarTMOApwITK/SS8apiKCNPN5dowsxUKSvAu9Efb4ex8JqQRk4UMaf/fxPvUqB3uBYT2wAf+Ie7rvurX7+FF2zg9N8pJ8YkRK4E5jDAY77/QbNY3a//BSN5vQGbRWvisvkrzYB12Kuaf0vCPnimj3qt76RJ5XJpKh+CVBN00g0jX+kskkupDLUnxZ+iFhoFDuJZHXd5+wM4LePC7phw30BiDQZ7FykFXGzHGU/hc3P2y28SdSnxYJzF4OqGhMaFMKiFwkW2LfOUBghfZfxXWSv7i9/CpILJjOsVwXsZx5n5Js2Qw4TpkbmwzDaZnvDXSg6CsYVUzdi2UJrEFrB/yU9hjmcuWHHqTnZlYSt4lXxbf3v67D+aeueJLzSMjcgvc4clX8w6MwnrTBtzdUitfR/IQrPwGMaQdO4GjtHBag3EA4+ClhI3Yk5sD9f0sHsae4j9oBdZilebhqHolkaDVggNeFRV6VXxpQIvW6lzI4AvSBaqxM+CzArvqRgVFx8Gb8zEEE+DvI5CrIrf64vwlF7aEm5gSSGAIcBAO5iYHMwLGPY0kn+S8UKJ6eXAd1pUoHddM+fPNF4KlM0Ac6GgwQikuBkGG6S0jlKX+SeSMBVlxmU7SLqOIyqE2aaDJ7duNrcgMJ/Y61/6unImZgOIRlIMsmfhhx8HLWdiv8/+lUYXcdaLBFpgidLj5K4nAU8+FiXhVNaK7KM1e0K9Ik6lWTLMj4V9PjL6BKJEAmXPpj1kljgPJimgaPmfrP2jZtFWGcTfMi3MUoSZBPtFtabmcoIXGkuGTQ3eCf8Z95DjYiNJ5pwuyol1HaYTxQxNiwWlUkUWUi9uRm6KIkaD9iYRDKklE1G7hJIxrI//fM1//sWvcLMBCYjxJxC2spCuxVuqudeYd2Ogy0wATfcd4Fe4vutvv/j+t7/EzQ8+cGhbYGIhlvz8fzWLhUmbYBunesTo6K+alJgamEaByOkPfxovrpCm5hVyXJGFfMLgYHohOI2VKsogb4eMXKPfCSFy7AJRYjE7Z2LmbqZaaBGjnjaVgn3asu2pNisIvAgTS1DVQWgZBlcEzxwaIJot8hSDiK5FXqCWXqpFmW2cEwZSZAxjUcBtcGgW2ha0yM+5MkNTtdQ206XF6+gnCkZTrMWOqQtWmoIQXgG11XOPeC/wo2lciGImpbj6C03zIfoJ5yRh1FFHEJ+R8xCoEOv9smNQi7Ef6kdVcK0HJmYuLzUE1KLO/UM/3A1YDmDG3cUAkEzRv7bhKhhbEyiqfLn3a6AvouK/OH5g654mSf+wJ0CGR/nt2I7067N/oK/eg0SZt/LDZJGnY+0lp/nOQ7El1TMQsBpeDbPlrhxwQNv5VPzoLLzSBe40Fk+2EKZPwsQs9QLNMvqFGNJoT4fSVFXB4AodrKhhDDX5xg7InOctoB4pGxxg7U43XsEknFzR5Ygl5lIzsxe7oZlrIurYZb43RirZHB7puKoAY0OgVPHlIKfpxH566EuLCAIsydHa9kn305zW3hNDMqUhCT+zNr+Ooh2Xums7Kc3+/v73v8/K8oLKvDFjd/S8ESYmgX7gBkhIYAvEKKHTEVWI2JFSFz3IOBKIjRmFZn4orUQsojOL99QS4lc2+0THOZuyOTHIR1WMD8ZIRk511XqRDeOeFw2SAQCC4FbTFXEqXNZofaz1UjQUe3ZZCJuW0wFtHKK9MqaXT61VJZ8/fvjn77/47h2mp+Rh5H//83+lBWRyS+Vt4u2rX3JsLwi+AdW+rcTSeM+DX/9wf/9//hus1vvmC3rTRqJSvDYgoIiJkBrDEb/ypTfvfipcrgwD3cI0nlZwVNoaJqaBacrrcmla0uYnao/YKVRKKwzVoc36BXn79/3Hz3Sjl+5HMDFaI6r2N5WCldqy5amOaRfeULq/L7wWhX7PTKTlHGCJbdqm7SkNEM8WghcWgn74JIv0iMHKOM7MkEozHkTlNgttM5NFp6jMBFNXURpGML8WpEtB2vJRCCboNRtf2txg7nntBX400ZJCzATlNIc5LsY2pRg5CahpBDUeJDz1NCCz9AjkgVpYYfhAqw0B1MDEQgiBYOMpXE+kU7ozebjb4XyJ/UCTQaAeiHHgNMvXkZQfDbhhBwYiPaK/BCA0UvToSh8e+SIycTEpIFdBR6giDNUxQz2F1szYERkVnwg+q+BlMAlhtE45FfoXwwsNqCSZz2G8gk1iTyiROy7jAdLU3UQgPZYhXYeMFytdcDlElwbfT8IkD0OpN3YZKZo96kDk5rqTzPcsS2ZmL4rOpveswshNncPcDbYpprcA5JIIlyI0KcBIM1mBotNVExuY1bL9jbBla8XBrPcna1BjYvazmLhiP12uCBbQG8c27KzZ9SKYmOZzbNx/MBPLE1aWODGLEGJjqRHnppA1EQPk1FbG98hgoiUN4xtMrNaLjAe9qJSojjKxWi9dnajUyDLYRi/GSnAfRnmhbgkTK2BYm4aryj9//vTx44d/1hWAmmXaj/+Dbita0pKr99ny6kS883Wbt29hWwLY6uDDJ7pHv30b7T5H97uUialwIWwSAQOXy9/1EjtZKaxCtLtkRNLSy1p/tbJ4cbk0bdniJ2KkPnEvpTIgBFwwCnSjl4iZXVieE4sAAWK7SCk4sMhTgRTZjrw9pQMdJVXkATtMvPJEkl+1KBujZiiNWWrbIk8Zn8BV6BcBkbL7zagZ7fmmzewbg1oYXFhkm5lGrZxYGKm2bVYcBQflaakXYDR8PA+DC1acTIPkIQs3OTAnZgIeUG5Ocy5hjakeF2ImbEtzAKNsdERDKJFU6Ehjqi2T2Es6Lv8L8ugtr2EH+RD6fzGyp2QSRLlguJoguhgrsCimCmjyEiYWyJHIbP+l6x0MQqBAK0E6PPKtwEikqcIvtF2aie1H+OrHUngjJsbOCbnAATduWXaETpvpimBIR4KShzvBNXTc3dlMWijnDmFwAc7IjERk47Qwq7F1uBxoVqsnyZznTHgY7piGzTP4hm2hKvP9DEyMp2vhDkAuJw8FFBC0sgAj4aZXpoGRsJ0Ham2OazlzC8ie/KjBxCJd8BMbP2PPlyBGHeKTF8DEJOgnFgG7RCAxIBbELCJencgESegKLMnTLJkp1NWJJNDmczjzY3vhMfG0ATfMCG1iJqYZIVDaND4wscTCei8SHrlDCa6+29d7tZhYsxcQtj5GTzBhLlf6choZGfCRLvHUW3MGb5Dfjbunvea7ZUFIRIH2D3/Mt4Ovfv3bsGoRP0l0N2pf1ky3Etzh459kB75glL1b4VYHHz9rMAdht6QR8J4a58T2j/S+LC2FkiXCT+N/kXvfm7/9b3sxD79/MsqL0BrLdm9++3e0ab2RRvtb6BYSZGwjXlwsTZ09AROblowC3egPY2LwLj8jGQBZohTwWuSpjumbd/+I7/nZb6zlUbva89W7wkQKC5Y63oVSbQAvDDHQ8uYoLPGUfxoDEwvzOq5aOEO02Zt3/ws3oVFTYxeW2BZMWUrpF18LOhAlAHnKWcCLJDnY17iyoNFh74mZgAcsMqdHMbFIELuA9m9Hul7ywLYQbNGwJsGWngZklh6BvH58HHt0cwfbIUYvjFmrcWLOMTE0MHIFxpz4ALir6R1e0M3w5oHvvAd0EwDRCFQIzTUnFtat8auY2hjGFX5u9DIhO2h+ymq3eRPmWhwEb8LEKC0tuOGUsXMSTCbqm2Ko4xWsJHvkly2U8xgRV9TihsC0SvvMH/Blbn3gTnQ5DyO8KEsuYQWNEU/yvXyBBqfUqccrWJ87mJac5OZQvgPwT0DicoxY4eZAaNDFdtDEvqn3xMJY0lFGxMLDz7Rp8fxcTIyeLMSDWzRAClurEynol8QM/2U2IsTM1gaiIjRDa6mqkAWS9YF1FoEbBhLpQnGaX+LViaoDD4jXTbIOMK403KZiYc3lFhNr6iKX1WbmUbgFZU1X0XjdIzFJl5GDBG8dQx5tuhXI3V+mAP4tV/G9Q5iMBOKciDDPIvZ/+RtKi2X//6s//3vdZJE10q05bhnCjlAb9gzgmxHrxewU3kFLhhFbi97V/Lc/+UW55Z/89fuPTAaf/vKPym3e4Cbp/NSlAUj8M7NIWogYSiFsND50ojiU28+PAv9ecneGupkTi4cJIMKtF8JjqHmlYLv+hJQtZ18DozBj8Uv+oJnhTtw8TJUwM8NEAqW8C6WR9gv+lpqRtsy2aZr3lKdHg4nh3jPA6ZfNt0k3q2y7sMA2xoz+tCfSMtta14IZBZ5yc0xMmuXzDUpiElDeO1HmEOy6F/0CzgVbq380UVPqvlGJvtDXyYmsYAedZmYozXLA7KV8gyHkSDab4o6R7HXyh68MutWLpWRLgga0pGZgtXGCJGoh+qTehF4xwZArUuSQ6mj0EkuzU7qxgyaC0eTEzG3EYMi/ZzqlTZX4U/qxEBPRgAvAGwMl61h1kNH88NMMp0UmFiHP4MHMMhwnQJoOB9bEEwBnpeo9YLxYm0wyuX4NvDiOWK7e2l8EM15ix6nHSxGJfYfitEQnvPRBDI03Ut78S1O338apvMYUnb05GJTgx44NmgUKgd5uunWfFJtbAd70/USVC3Ji8StjoHeOhuXpsjYTS2c1jELxssSbVTJLojHVW2cNnhYTmwzdGkbeh93SLd2ZvZNd7HVVoebQLFXQd8OoUNmFlpfyObx1O7M4u/TO0DPIIWmCjnJBbeOnrmxhpVebiTWAajCxRq8i3VJw9uZLABbe0zOxadr/+7/82Vv7IeDNmzffvPsCv3yV5IT/5R/f2ZZvvnrz9rsvvv8p4kQ8DZ9+++ffvJGvdeE9OgSv8uuBq854SaCZ07IUrXQPMralawn/459+893bN2HrEfJCPgBNZn3+l9988yZrQztvs+GlK1N+e+JYc1ogbSE/Cdeu3sqrfOZzexT4R/EwJqYDKulGMWxGKTTTEaxazsL+/cdf6cR489Xbdz98f//DWyRahjuJ4qk1kbCR3W+mJm2xbdM042mAN51/vGQleq1xyQyZpuk//jy8nwnf8buvADJjm2IGB7MTaYFtrWshXM4UT8dJyFJOjKFLAg45lauenMC4OY0tSuac6UeToYSNtsMjAPszLDNKIkvsIIWhi26JRlUap9Lo6Cn0xjWZm8URFd1EJTpnzYaJCa6W5MIIWCfQaCgUQ+wQRZ7xy3FwI+RtNYycdFxMFeMY/6Ebe4WJARK7AQJc/G/b2/3ozTcAhh2tjwjK9qMdrBDLkvILwJsxMb4KA01NJgjDnv7QhfaKG3SUsdZCPEDwk6oZgWvHSxXOXw6R6am30VACQzrheOndVyYOTJ+z3hzEu/g6gRc3ZeoOI32ygqaotC/cHKZpz9uZdN127cSepkOWGl41E+NNOuAN+ORX1tSY9+NtmLqWienkPv8B8xxlUNd5oKxJk0vXaedprIpXXeoSR2Vi67UcNY/g/bAP79+buf0eP/hUEJq0fE8Nk2V91C9pGl1W9GQDFIaryFxlUmiKgnFV26bUj6Jx8KE042tBWlGr6E9vDbPSaBPW2NUCsKFIsREUQpUcJdAmo8ACuHt0Jq5BnYRdlAFT/+JPfYlG+KxHPEkSpdBQpJtBNf3NIXxRLFbIz7rSOy/2SRRHE4kaWHHwpbKCtMW2zXoaAWqcMgDYkZufbyAjQgRTzKwmmW8LRkFNYgn2GtM6Opi3TWGT4TJ/jWmiyhTJ40v7ayrNjBBzaFGbDvlcaeLdSztFl/uHfA3aS3PkOu29TXiBVgmRFtyRiQWKKsVn+ysrDxM7iHskhcuNuM3xWu7/wpb4iCF9aDXb96qZ2Kz1qxq0c2KrRB3X+NqZGOV5OIc2Xru16zlSyaM410e+2x0X12s5bo5471eIgGFiUQD9CqFwl68QAXz5ofB95ys09RQmUdLmgvHzKYx+OTJuE17IrSYJscJ6vPONUljeUrDjKCZ2m+N18pGYeaW2rm/9q2V1WQfWLFideKDkqJszsYV0QpmYvgC2sOOLbgbrD83XA9KFl2ErjhKRK9RGc89PHIF5BJyJzWPkLZ4VAYgzVj/ufVaLD1KOUVHzY9YHifVOhMAtwis375yGPQsTs18f1Wl3KBO7xfFSUE56AGnDw5/dwN0V3k09XMJxzjgTWxjce7MXhMBx14T3foUIyI956e2sVwiHu+wIOAKOgCPgCDgCl0DAmdgLIhhu6kIELnHluI6bQsCZ2E0NpztzMgTsW//nPj6Z0S9H0LkhtfJfDirXa6nF89zH14uCWHZuBBbKF3Ne8F9nYguDe2/2ghB4wRekm/5sCMgOCv6e2LMNgSt2BBwBR8ARcAReGQLOxF4QwXBTFyLwyi5id9cRcAQcAUfAEXAEHAFH4AUi8NqY2PUP0c/T5P85Ao6AI+AIOAInQeD6f/XcQkfAEXAEXi8CzsSubexP8tPrQhwBR8ARcAQcgZ+v7RfO7XEEHAFHwBGwCDgTs2g803G0PfHP0/5b+DB5/+1++nHsN1335bi/iXhi93V4/3L4naf+XhYC8LGUqxy1/fglzKurtG35EB8NL90rNl339U6S6ohMOFVjjtZ1ydvR1fh1udvXoS5Xfzie6XfN1V4RAsft8X1FjrgpjsANItBiYp8/vr+Xfx8+Gefl1XasXPR++9V8T4y80E/wRR+ggA+0b7qu8kGB/cMAtAj/6+92e4PH9LQbttiXG6BY+M5goB7dth8eo04sAL8XYT7Z+fM0/Q56BiZWiKU0qFp6gD/Swy4KoQAF0JIVQlCr0YC69GOsyzZYxRWx49FxM8ffEcRgaj8mdkbexS48d1VpUE5vYYjP2F+a/clkmNW7JHw/eFD0ggwXzOIZQkrXjjubWtLSqJpF6eAGS+BtCAeb9Y5BTsG4ly/MFbouM0XjW5B181x+1TVa7aXj09y+SpL58jzC5doPh/2tuvDx43Duj/Q8PY5324U64YgAACAASURBVH77UPpxvbCzJ1PHH5EC6E72ZTX/OvDJhscFOQKnRqDKxJBtCf+CkzLjQrZWrrKmXhcTQ47UI3caHoOZDSYme1yHQDEQtoRxER14mqZCedenvxfwpGpjjYAQAX9QMZzCCPVcTEx+8iNCIlFaHHBgQGaCXf3Jp74/jkPK6OqhRiz58JBIzK5HnHUbpO/x2o+RcJkwF7WYzCqOXbc5BxMLgB82KIf1WjsECEg//g4SzgkTa1St1bKyvVx3B85M7S4HratM2izQhYCsnSphGqwEIe+opsrBifw63LCWAbn9B5SIpz/LQUujtKGhrP1whN+4ix+dn4nhT2jnTGzB0CIZewUfB18AhTdxBK4KgRoTA+4lPGyaJiRc5tz4kLQ0NebwqpgY0qp+JKZkMmBVJkafR99wAm3/iGsGNx0SKPgphAxWkiWbhIltR3xWt99Rwk2EEDalO+PPnI96HiYGv/rIuJKf/+gUfM6SaYtjjkjU4l71qPEy4fvhoVvb8tWMaDViu6+7/ttxEEW7r4mErA2v45iv7hQBddigHNZr3dD8buBMUT4PG1Vz/q6zoSBtHbyZOrkkwSm4fmEpXfUJzgpd18DEJNd3Sr8yABdfVvm0KYzmYmmFvkcMZbANhIQJYH6JL33oTOwIxE9PMvMnv0eY510dAUfgRAhUmBgwryjTlRWI/hJHw7Ko/zUxMfyRAoKEB5thJ67UmFheTikySHARnWO6JYLob1q1H7fI2UJaDG6LZl0idSv8Nke/6/Z1hfBbi71slTzsh8RXtoSPfqSxKgnXJJKj1YkixJJDStmZ/FhqcKQxSNBmIVywflV7IZHYU54QHUkpRC18L6EBEWr/7Z6q+m/3GGhKyMK+B0sStlkUOP3MMisWBmnmXaaoMIwOjUWKD0xThbGNRtFCdRmF7IYvx72OMgxKZIwqolDVCjT2w8DZqqTXRO86FpbGtXSVezUHpW3DTLSd4mxmY6NKp7EcKLy0ojiaUWeDt+AapzrxEQkcp5eJxSoZyoK0eFbEUxQHMR7cQNia4zU7bQqWnNgvnLcF4/WGNjNF0xtj9OCMplB0wV6Dy/Hv0sIzXCB3Nz5scYHc3e7xrofFcvp79bR7oBJYQdffhV+1aYqqoPsmPO/cP971W1x0B72K6/UXGjhFS/hoIR/rooV4m/7hKcgKrEaW6T09DGTJ9m40DU9o4YjyK2ak9vfbu50xAywPNqsfxGx1FFKiO2t86eEvCCdQVK7q8wNHwBG4AAINJmZzYtWkWHHd4lUzMUpw4U8DESpdG5gzLhqAwLtkQLSlreLCZHWiIWm2MUiCjTryRRUS4RWCEt7MI42xqCVEWkqrwjIVji9DqGTkhy5RNgDlx8EotJTwpShKrMU4pm4GNIslY8dWL4kgyeu4JfoC9ohtYgbGWyUzSBpzsC/7/utdcAcN4zf0MjsDVtHyUctJChZCAkrfW4NBMae10UzxiQK7Bho1CwN5Q2dthoFpWAkojiADsJkZlV40BKVBiccum6J1JgaPEpjsZRhWZpShVWbC6/SY6ZUOQUtaa0YRn6kABR0PhTdyJHUwGilq2dDVFEW7B2U3nHQUQCM/tjj0ImqbgbUn8iudeNG0bF+wYEY+N9KSyM7aVbnA32nSBYpmiA8ZSvndWvO3wnOY3sBvVyA/0etMhSphYgWZR6yVK0hT1pdyGOZm+FvPx7H9zBULMo+wMKdSBA6FHAVdSTiQeoErbcBHZUwREysIzI3HRoEZy5RwJiZI+F9H4BkQqDAxYl6aFSNqZakZMDD6p41a1l9PToz4ktwKcZNCeZyn/CrxJCFs0zRpS0uuZpmY9iL5eO/L75TmRzf/tY5/hk2ACNGAjfKj8IJj3OJjcgwTQSx1hzAlMLHwLNwIx8ZZcEZma3fxomBwGrhQki0SaHsl6vIQPy/BaKmMhkpDAoZt1GY0zOTBDIZNeFUmjVfBHkYjCtFqg5KFelGvqq6qheAFOrUfvxwGYobaWH3Px0vb5ManVQYokVMAoaGr0Qt0SZQPzSI0+ALBNnleLr98opJGr0aVmKqidEQKM6rhMqiwU9T4lVYZeNEwc1VSuju7dpT7kbWpQKMrc0f9ogN0KpKP5SAhXCnWTbQwVFkumprxXH4ZvUVmFTApAYUORpMtLTG9rsTl5Adt0SmH9XePe+UDTw+QFrt7nOhgsx0fMYnz9IDbcuD7zly1GajqD4tGlB3xsfZK0juLrCo0UvOiulg4WcU8R5jY9gFzUI+UGcOQQHqxX3KapKoiRe2TRAKd5jxoEkjjqoJrDYFSNWM8YKFMrm291zoCjsBlEKgxsWmaAtm6f//xU7pcUcxDkjbLxq6GidESQdkykfJjkrZKmJJ4+IfcVbKqsMzEqD02NnsninDMgUVy4AchWrhAAkIcYIiWFuKvPoRi4Wk6NoNgiMIy838TkBUjKgmXYcXa+DWmHTSoSsILlE/xh4aeSdCWZVHAsILeRDKtc4vdsb1AnXEkVypeGLjqaIA01BVU1Fy2htUFstdVCyEss0NjY7hgg45vITQ0gR2ZVNRVtRDiToqMDVAsU9FQVNUkPZAqY0ZVVxgCo4sLG7pEBc6WeCa0eSl3zGaUCmwdNHo1quxI4bH6FRCTGaVVaoa20QOpWgev9AqAcwmo7scfQZreJVq6MncSyVlf1mjLwU2dkxl0AYQF0ybRHk5P6pc1Ho6jKSfQyWVrL1iwJ3MwK7m+odSfshUHxMSAnyAfgF8q4jN3j5zqMU8RKdUDbYg8hCrDPYSkxcmoeL+qFQZK0wJdgSqyn35g7XG+EC8YfwYLI9WKJNv+BLs+RqnFI5jYUuOxHT2KFgj9ryPgCDwvAg0mFhnW2JejuEAx6jxN18LEeO+NKDaG0AUfetWYWF6u3IyrUrpVZGL8npjeAw/JiXFogtGARlpQKMFfiF3iGMsGH9qGo5Afx/7rHUig/1NckgYc4UEyirKP80M4GKIu0V7Qm0quvbnBT+KjOE/EqgvlJW11NNTCYJg2bhimbUoG1C3EqE6D1CyfE2ywYlMzTGA3w8Ty3AW/BmZyFDRYLFPRUDzVJD2QKmNGEw1qD92jAHdmlGu9WmGugpYiFiakGF8qafRqVKlSOVAMA2KCj1apGdpGD6RqHbzSK/ELhPBrkDDr+LSlS7yoCCw9SaEuAaLdYJN7oZxtCyAILDVd9fKT+6Voh+cUqB3KA6vMLlhokzmYlajw+dvyhVxOfo0XnTaYGFVBckz+KZnJqp6NiTFvhDyYsQEMppxYSAup8ZKYShde6k+2uLvmLxEkTMehItUrqbnnYGJqxBpPvK0j4AicC4GFTKxBxDB3NpcUuxYmVtpZHt4MwgWKOeNi1LmXEDbeOxFPhdr1D/yFsUpObL+7ow+OhQ1CDnlPLPrltjGBPS5FV1k0BnESFH457r7t8bnvDrbXi14Yk5dzQGBgYhR5ZMG9CIzXQEIcFqgIBmeZqblttpc9jtwXN8mL6OPXmQrtqHFhUKoBYtordTl9Oi4GVC0EyRZDE6Jh32CDiAI7EzPi06quuJn6SwOXDRZbkhsQ5IPxhm9bX6q6OPjWqWUHpaVL3Ic2MX9L0VgYHItAg0OwjQsbXjSqMsmNGdVy+TB40TCbYsVjZuCCnrILOWjoytxJEMtd0AY8VegJjspJoVt2EV3cLzYe9JrnF3aSg0fpBQu+pw5mJbaBPVaI6ACrLjSUh0QPDSbGiS+zOpESO5pAgy064OGmkg1K9cTL5w4xqtSHcmLyKpptQRRreIAvxZjVJxET2z/ikkv+lMxZLBQChsKVvnIKizmRmLEwJ0aJxIPgxXGN1VjM/NgRcASeAYEFTKy9/hDXMCb721/tjh2Uy7KPuCz74mNZloK/ksS+OJ1lfzd7uZlVe5VYn1VNyz6yp1PJD3bjNAqwMOKxUUXSMQ0yMDDFQgm4SYIQpySGiHTRk3LDMcL3xCB2CdQr7lWPgFu9AjdIPJJTCUBtqF1FoxE3JzEWxqBKRaoCW6sTEUNhQehjRMzokbmBkT1CXURfJVxTElhHo2ZhKZoMIWYDeahi43meqKk1XWEISoPS0MUdC72SeRgsD7qSgVOqMHOQSj5QYGtGobWVy+EoeAuugTs0XXX+gAp5yFIbSuO1XFCRcBx6nX55VfysIaUlyy+iSLK15Ix+DeO3fRgdYVmtC1baxIAo4Oy+wWT+Sik4fnKXObAQnrHotacWEwsUy6SP+C0sUmLKw3ti6W6BybaK+X4UiwKidFWe/DDr3oNggP2ZVQJjjGTjz2MhLUrcwi6UJgBoAFWykF0oVrHLnJBsJNmYHCsdDACzNca+UOdHjoAjcGYEqkyMN+mAXTnShBeSL9mww27jIbZeLRPDtydMVgof2/VAvaCwyqnAL01qwd4Wg2zyQR7vH4ced6gn8sbfFouZWL8d0j1q4ZNj9Aa0AAd/bRSSHtPvuq6tVJ5AvZJajZtZJkZF0pcCfYqwJQvBDWIOIOzTPDkmqyQ6hwYiAY3HgJvprLUwNS/uWOsV74KYAgKuFcJ3aJaqo+CpFTdjaC7+4pyI1JUFtpgYvyZHmPfjjyAhjuGY07JSTR4GS9JedSZWc1nDcTu1oDCJONEGO14hrMRNXBLjq2jQBK4MSm2UbTlPUQYKoTCgWXdSG+IZZf21xwVdMoEbVVZCdNyaUTB/rMyTwZvdJUCLDKgZuMKMGnZ4aRhII3cyyZUpqpdYdO0b1XwHSO4b6ZDNmXE+v8iSeERaF2xqeTTZ6hds7UaU4ywlZ3CZf18kii8E4vYXiI6bTAx+OHd3uME98pxoP3rdHX6zHR4fcSf3wI72Zu/7nImtslBthq3bA/0IukJSLvJYlHCXbWQ8hAFWWrQFv0nzRRLVksqBaBS+x82C2dvhgbbUJ+OlfXDKkMkn3mKkWw8vbwxSpFuUQLRLTivOeLEj4AicHIEqEzutpmtZnXhar04gDR+XRXfGKPqfCZLkx9ubnQKBNOg/hUwfTUfgZhEAchLoH7npF9EVDrf+UKVbRmjF1Ryc0kJZ8mcTYkqmksLlAJzSwuVaT9ISGV6NQ1JusVZ7Ev0uxBFwBMoIOBMr43K5Unz2aH4WrvCH/JWY5EHkKxlod/MUCGgyMHoe5BfRKbCNID1eIP+aUarF5owu9zO3TNOpLOQED+aUzBtiZAQpMT+5y2yzna8Zw6o3AEqSlTNt5W02U+SHjoAjcCEEnIldCOiWGrgJ6rOo4393XcJhCHgQeRhu3ut1ISDrLZN1iQSCX0RXOBlkT/dGIN76fbpIHb/kVKcKa6wQJraVz5rZzocysZNaaA26yDGk8soEkv2q1F7EOFfiCLxyBJyJXdsEuMIfcjfJEXAEHAFH4IUicG2/cW6PI+AIOAKOQEDAmVjAwo8cAUfAEXAEHAFHwBFwBBwBR8ARuAwCzsQug7NrcQQcAUfAEXAEHAFHwBFwBBwBRyAg4EwsYOFHjoAj4Ag4Ao6AI+AIOAKOgCPgCFwGgRYTM58UK301bJom/rJY8mHnguW+i30BFC9yBBwBR8ARcAQcAUfAEXAEHIHXikCViSHJEooFJ+n3nadJmZo0q4PoTKyOjdc4Ao6AI+AIOAKOgCPgCDgCjsCrQ6DGxIB7GYKFpMucT8zDPnxKGlYAdCZWAcaLHQFHwBFwBBwBR8ARcAQcAUfgNSJQYWLAvKIkWFYgabISE6Nkme3vTOw1Ti732RFwBBwBR8ARcAQcAUfAEXAEKgg0mJjNidFKxJAUEx5Gr4qFctLiTKyCthc7Ao6AI+AIOAKOgCPgCDgCjoAjAAhUmBgxL81qEbVSaoanTL9KObEcWs+J5Zh4iSPgCDgCjoAj4Ag4Ao6AI+AIvFoEakwsbIx4fw+7dXwKyxUtDyvnxHI0nYnlmHiJI+AIOAKOgCPgCDgCjoAj4Ai8WgQaTCzCJKS+wsJEbBAqovbJiTOxBBA/dQQcAUfAEXAEHAFHwBFwBByB14zAQiYW+BYclf+lb4tZWJ2JWTT82BFwBBwBR8ARcAQcAUfAEXAEXjkCC5gYrkbUV8ZSvAJHCzX0Wpnt4kwsoONHjoAj4Ag4Ao6AI+AIOAKOgCPw6hGoMjFiU5j9spQqA8yZWAaJFzgCjoAj4Ag4Ao6AI+AIOAKOgCPQRqDKxNrd1tZ6TmwtYt7eEXAEHAFHwBFwBBwBR8ARcARuGAFnYjc8uO6aI+AIOAKOgCPgCDgCjoAj4AhcKQLOxK50YNwsR8ARcAQcAUfAEXAEHAFHwBG4YQScid3w4LprjoAj4Ag4Ao6AI+AIOAKOgCNwpQg4E3uWgemmyf97FgSeZbhdqSPgCDgCjoAj4Ag4Ao6AI5Ai4EwsReQi589CQlzphWb7RaaQK3EEHAFHwBFwBBwBR8AReNkIXCg2fS17J+7uNt3dYzIlHodu0w1RqZOi50JgmqbHu25zt0sGafEpDPFmc4yExaq8oSPgCDgCjoAj4Ag4Ao7ADSPQYmLmk2L3Hz4ZEOAbYtG/qNY01MNrY2L7cdt1m65/2KuJ4eBpN277bgMNMgoVWuVH+4dtt9mOT2nNeia2H7u+43/90O3PtpRxP4qaruv6YxWNaPQutlYLB6MKtKlfe3Z23CM9k9Nht46tkfxEe7YKFAbnadweSKVwiA9ncenM8HNHwBFwBBwBR8ARcAQcgdeLQJWJIdsShgUn5vvOpa85tyF8QUxsNwgHW8fEINOyiTNfjMlKJrZLKEvXdcM6TpLRj2r30zIxsjzhQjUmBryMuN9OOOeIdsrp+ZiYkLEse9mexETh+oeMas9183pHwBFwBBwBR8ARcAQcAUcgQ6DGxBKyhekx4WVTUpkJzQuujYnlFkoJ0qZuM+zWxduYZqlE9quYmGSEKEG033G+aC0tWU7GoCWRn6NzYlUmhpKJYKpfRL+AtqH2vmfCCUJ68LonYhZn2Bp+Lc+J4VjXmbNMhfwvjLIzsRwXL3EEHAFHwBFwBBwBR8ARWI9AhYkB8zJJsGmKCuaYGC1rtP2vh4nxukTKdxVWJxIT246lZYt1eCGsL6xLpA5PYx+/J0aZqJFWBvbdTujWuO84SWWSYERv+rGj5FLET2IGBbRNFjWGtX9TRxKAy4miSIhwoWR1YpQu60DyDlcPNswYkQwB10I+SewR2udMjHwnN9ELQmM3dUPXDbg4U43c1ddq2qpA7ZC8VdAIY9giz6FVdORMLILDTxwBR8ARcAQcAUfAEXAEjkCgwcSid8OipBgwsfBPU2VqxotkYrs7fjFM3xCDg2WUDHZx2BbfOQNMKkyM1+SZP/3IrElJyDQZbhbzrslSLG1mpOmaRmVidtljlGTLJAe9VqBdTGgSaMTNhh2bmvDJhIkFeX1H6xiZlyJLHPH/OyRyBAIZH3rpmkZxP6rqIplRFZNbnaTTtP6lL2diBj4/dAQcAUfAEXAEHAFHwBE4CoEKE8McWMiKEbWKqBlrzUlX0ZzryYmxecS7bE7sCCY2k10BJtbbjTw08bVXCkSLEgeTv5JVedp4wnxR13W8s4WcEp/htX+0y8UeMkvakrNqdvlfsvZPzRCl6SJAWTMZ6bIbbCAxY061By8gO6epMGRBlgcSR+qxXHuNPfYaOKUGTFL0jrFfQCOlSiklyY8sjHshbnZ6Pj309UymbcjHa9sXRHiRI+AIOAKOgCPgCDgCjoAjQAjUmNg04dtgnPl6//FTulxRAUQuZlciao05uCQT+332zxgihzkT45pDVifOpEoqTAwoBFIgSP7ETKycE5PEF9dq30m6RzkgOCGWomklpXAp0aowsXEIWziSbJvFIjOIR9njEXkgZbfomLJzlhwqj9IE2oj8DTJe+HoYNB7kBTZOZ8F+Hswqx0JVYGJC0hI8EA2ZAPAXmFV5kxXbSls20p5pez93BBwBR8ARcAQcAUfAEXAEZhBoMLGoZ+PVMKi6MiYWmV48OTkTyz8jpnrXMDGbASO+FLiHMi7MNVE5k6sW92D2oosVUxpWeU+M1hwmZIaYGPMoTXnJmkAilvSW126CF9uGHWbnTE5M2WCyphEkIyGkBsTEGmjkVYcxserbfTp84WA5cwt9/MgRcAQcAUfAEXAEHAFHwBEoIrCQic0QsdK6xUjdhXNike7iyUmZ2NR+TywzgFhEMSdGbEQXFureiUpglIBx1kjWExIP4VV8UljgcnEVs7I8JybUjvSqGczEJDc14MYbnKMTKlXbBZEtxDWNKlBTYSqZTILGfcerN7tOVyfSjiQKXddF+4jAKTpYR8MMhr8nZsDwQ0fAEXAEHAFHwBFwBByBCyOwgIk1lx/i5h3pnh35y2NXw8Rw94xoT45kW45DVidOU2vvxP0DfCbafmmsxcQwlZRkouh9KsuaaI9EWnxI5ZwjinsSLYmyajETKya+QlYqlqY8BzQSecMGyhK1kLmZtAkLDhOBJrlXZmIlNHSPR6JbiUiSU0cjXF8zb/eFhuFoZhlqaOhHjoAj4Ag4Ao6AI+AIOAKOwAwCVSZGbArfE0uXHpqq+2I27PUxselx2GwqCxSJidnNQdpMTN+GIo4xZJ/VYvqENIbpGfKrvdntnfoew8R0y3t4Y2vsBsxGWb7EZpiXuOzbX2CYJNaKTEz32SeiaCXz3iTiIDUgj7QXySer6I04skflVNDQ6+GQpYbOxBQ+P3AEHAFHwBFwBBwBR8AROBKBKhM7Um7S/WpyYoldJzxd9aVg2HziRf9nlxe+KEd4xA9IiOH3CPzLzie8ZFyUI+AIOAKOgCPgCDgCrxoBZ2KnG35872jZDhAvmIZFGaosX3f1rAyHe+V7fWGKrH+1LPT1I0fAEXAEHAFHwBFwBBwBR8Ag4EzMgHH8IYT4d4/zcm6Bidm31K6egCngE73Ud7ebH6RyCxjizabbHC6hLNdLHQFHwBFwBBwBR8ARcAReFwLOxJ5lvJUY+MGFEXiW4XaljoAj4Ag4Ao6AI+AIOAKOQIqAM7EUET93BBwBR8ARcAQcAUfAEXAEHAFH4NwIOBM7N8JnlA/bTtjd8c+oykU7Ao7A9DRul70I6lg5Ao6AI+AIOAKOgCMwj4AzsXmMrrMF7v7nbytd5+C4VTeJAH75oNs4GbvJ0XWnHAFHwBFwBByByyPgTOzymJ9C44p9Gk+h7hwylu5ucg7dtyyTvl/XnXdHkf247c6swo4RfCLivA5Zbc1j/HLg9mHfbFSr9O1eash4uSPgCDgCjoAj8CoRaDEx+wXnD58yeD59wO8+w/8KtXHzV/A9sdhhc4ZB66azn3YOtU+7cdt3m47+W7rUEJ/N9w9PQc5LO1rFJB8HRYgPjo/Kn8Z+0y3F+1B0d3ddtx2ToB0KwX6eF+qanSDQRibFWpfzL4nnulaQqDJQ52Fiu2HqOv4vhu2iGeC6GTgRDr36/BMIh15H3s8RcAQcAUfAEbhVBKpMDHmWMCw4ef/xcwAhqg3F1SNnYkUmthvicHshM8An68eTkeponb1i1VewpwmY2HDwtvNlb8oEo9z24FIgRW0mpqOI9lgyBkqhsB9PQLhj4oS6lpKxMlCxwIMBsh2J/9Aw70fgYwUytuQTEVbo+uM5M0DiQRcgkMkX/fRkPZbewxFwBBwBR8ARcATaCNSYGFAt4WHTNGF6TM+TyrYGrH3NTKwOD+d6ht26WBvWR73kkA7zG2tC6ptiYsBhkHElZCY5xVlzJiY2TZg3W8bxLsTE9lPfTZZuD93Uj/G1s5LAR53hoceCBx1LzOBP0q3dLMeZWDQgfuIIOAKOgCPgCDgC+EHeEgzAvKIkmC349CGuywTQskbb/3UyMQyuJeuV5jsgnsNVd1nSJMMzLqjGo/yCkCrcxhTvaTfeyULI7TA+mkVz9ar949BveaVcf7czffa7h6EXXV0U5jaqOIpN9zx4HCB3pHhQ0kbzYE0mFnmtKSaBzCzzY+IRtQ/2BxIQNbACycgpJDIpssf2MasR9oJVQTIadSQT4+7BSDt9CEByylpOKyFtCbQMNgdpm/D2V1SYAsW8MbSxZgj4K/5SEizkPXe4RrGfzITDHOF22ZfTY800nZZYuMwMvHQ3ay1xJhaPip85Ao6AI+AIOAKOwFTJicU5sDgpRhkxXJ9IL4pZyoWQOhOjmVVlYoYfmPeBloSKkM7YVnYvCGGxxs0qkrlNSVu9qiBQovncA004NKoAFljZlW14EHGwvgcOad7jajCxx8EwXOBIyalZHLgfH0Kkjwv/CkkSdFm5E5IucZmJs3BO0zLR+wcX5fWwYPluYOYDkwKxYjLDN6GYGnEhgBD4EhbKnGKrUtWhjZoNRbEuzomJmy0MaYVkDpSYwROsaAY7segPrAkU3sVLE3GBohkx9KM6+WtaaA6bWVFriOULzahN46ZsZ2JNeLzSEXAEHAFHwBF4jQhUmBgtR1SKRdSKlysSB9OlihlpK8H4OnNijARRExsM5mQFtmVQ2lRCUMsWvqPC/IqjbVa4HXkhJCTB+C2cehXykE3P2bMnOYWllByIW5/EwEYVNCkvTUQmBvwEzUaxoI7ZHdbaHSxKekE4+CIMxDAlMc3+tUwvlBulVGgJkhpJVYYmgd4wekYIdMEhwL6xX0JmhDYXnDIqxEbsFXRFLkdtBAcsxF5aEkCWHuavxRCKy0AtMcMInT1UCgQ0DClZmp4iEbBbRppQrQunua3PCOoNpWapGQe8KrbOcjHI/zoCjoAj4Ag4Ao7ALSNQY2LTNEVZr09huSLlxAwoUKCkzZSbw1tlYr/P/hmn5ZDiwUKgjeG5CeGlQ/Nvi4ntx7verhiUjS4siUqE16swBLf8h44pruWVhMgi+nitY6OKmVj+khsggcmfEPeX+ExiO54SusFO4Rspo0j6BkWmQs3QMtsMaiWPpA3ooNYMysGv3V0/PgzIEtWvmB3RokcxnsVLd6Mt6bWGiQnli5eSguwahlBnXQt2LDEjtJ4/Igo0ZpmxJCc24b6F6ZXALAAAIABJREFUi6gVTezKeNUMWmrGKiaGNud54JoNXu4IOAKOgCPgCDgCrwaBBhOLMDD0KyNeWUHUE09umInlzqYlp2Vi1dWJGBybaBvJCUWidbrFbz0lS+DQAwzBA8MRySEMftqN9lUxyyLqVfWc2CFMDKEN0bZhXylVSAelSDAOZmJm+d/uzqyQZCq1H7fDDqCm/xPaqYWFJB53t7anvYzL2ixtk69O1KZCw4oYYqsiUMZfElUywyqZO6YMWDeEdpqeCkXAC8+bE1tqBjGxbJFtZGpyspxDJh391BFwBBwBR8ARcARuFoGFTMwQsWQfxXRfxTJSzsRMeK4QQeBvl7VpRfOgsmMHRsy6DcP+Ed6zkhwOhuaoyq5OxHxDo0r4m93bo2QZvYojuqIWharqe2IHMDG00DBAywfguJbCqqV6ctZh82D2OPIST7iW6JZUE5V6HHs0cnfXDY/RC2O6lhJWfD70qcHUPdpZM2VZ1mXRmrZpMrEWhiAwxwRKUxUlM8ScRX+zTQvHPts7sfWSZE0JzcBCQrrcYZkZsNmO79hRRtBLHQFHwBFwBBwBR2A5AguYGL4IFq0+jJJg0Qkpfj07djQZJsawaVLJvOJz4N6JtNgp3wWeiJPZkyMwMYgc41WLhqXUq4RHWZmUPBH+JokywygbVTQ7gEmmr/oAjTmAiaEuQRSpV3hPjCiEoTrxjh3F1YC8Tk8TRABpCOLbTIyzi8YAcJcHhYQIngbDQCNjXQTVJZhYE0N1IdhJlmEvU5gzMeQq2UBT7+L/IQnWTbQcsfySWOUlw6I0W0gXoswTW1M4XmAGpeZ8F/sCel7kCDgCjoAj4Ag4AmsQqDIx3qQDdkeMWBgJN7WFamdiiNKZmFj9HZXAqfrhYRxg93klFdP0tBu21V3sa1V7u/4wULuEbvVmg/tGFU/MQj7hQCbGGRtiu/3DHqiOoQdKhLABrQk0F0c0PgEoZnRIMgMN448OhGZGEB8i0Uq0EBOTQtZomJihsmHZJxNCS4CV4LUokDA925FUp70i4w0OJQwjkGVGpQJzJobLUFcmjogFdV2gZLGhD/1mLf8RATAQFmEpL/2dMaN+AZaEaZnvnahQ+IEj4Ag4Ao6AI+AIEAJVJnZagJq5o9Oqmm5Vl4EJ02L5vhemxXUfVhZYXrfRs9YBEVqYeJmVdQsNcJRPN0vLbxg+A1AHXn3OxJ5hrFylI+AIOAKOgCNw3Qg4EztqfC7J+iJDcd+OQ/MDkaTnOUH70zWKz2PKibRqWu9E8l66GMqJRRnKY1wqvl54jMBD+6Jfq/bqEE3VvXakgf91BBwBR8ARcAQcgVeGgDOxowb82ZgYLBnbbvIXro7y5rKdIbbO33a7rA2n0CarGWUJ4ilkvmwZ9JjglPu2Q3rtZKTuGHDxGxKHP0HA7psr8eUYHLyvI+AIOAKOgCPgCJwCAWdiR6H4jEwMt7XbHh4UHuW3d3YEXiECsC7Rr7hXOPDusiPgCDgCjoAjcCYEnIkdBezzMrGjTPfOjoAj4Ag4Ao6AI+AIOAKOgCPwfAg4EzsKe2diR8HnnR0BR8ARcAQcAUfAEXAEHIHXioAzsaNG3pnYUfB5Z0fAEXAEHAFHwBFwBBwBR+C1IuBM7KiRdyZ2FHxrO9/KJh9r/T53e/4Q2Xn3xEg/QXZup1y+I/DKELiajW1eGe7uriPgCDgCxyDQYmL2880fPqmWTx/gc8/pP9NAW4aDSzKWW9UV0Hzuo8IXhOPvaHGDYiF9yziuWuTQqo3vYU95+4Fj/TLyIlXlRvgF5KVfBy6LmC+FnRgzcOS7yUhmjF/2w9OyhaPxejGzovGy0qYp1RV/MrvpSBmokzOx/dTjN6DpS9BdNyWf3bYfaE6qJtu3n/bGHdtr1IodfGy6G0I7aIYdxx6rYku6bqK+Q1weBKKksi7AvvJt66A/PRq6qR8LheC4dRbtScxIu8l5YnxAuI7GNE3VXiI2/0v+6jgSsNrMokRt1NO8KhloGh1tP5Ww1aEs1pIZ7VFWU9ODDPnEvGmacgsbuvKJYY2XDXUXX/epuX7uCDgCjoAjcHkEqkwM+ZbQKzh5//Fzxbx2LXa6VXZ0Sb8q6D9D8XMwsZUfgwYmlkc9x2FVJhjHycx6A7ZtJqZxFtoT0yeIxfrNSfbTj4kT6lpKxspAxQIzx9cXYJirg0xBqp5COKsUC5mDVk14GqLz/TQIh6n2oi4986tpmuIIGIwHA1SjeGMJEtGGnVRVdZXYgnSq/h37GSam7hNQC8lY2a9D0ahZnxAMoiJqIeBmOLAV0qiCZjhDxnhcEl3JUOa1Vl0ZjaSFPW1O0ZqFKgCMiWdUbl42D/HrJrfwdRCFwQ8cAUfAEbhtBGpMDNiV8LBpmjA9Zs4NKI2q0OqSjOVWdQU0n/uImZhSglX2ULYqIxttGavDi5tiYsBhkHElZCY5RQjPxMSmCQd9Gcd7FibG6QWKXJEqaCifRNuWHUXTrtGLqsbAdrIIeJ6JEQNkRtTQdSomRjxkz4REmRjxk3AaQVA4yfkAOTKuR6MgHYtyggFkTNhXg241qgJrUhwquuxQ5pYkNhfQSFrY05iJRVNUjemnfWyhCsh15eZZ47njyodWqs4PHAFHwBFwBJ4DgQoTA3oVJcGyAjG2lBBDchb1v1V2dEm/BPH636fdeNfzqrztMD7q2qr97mHoZVVbf6chKobym2H3NA5bXNW2HcYnDGHwNMq3GAbVYGJc1ViCaORYT/aPQ082bLr+bqemYxuILdLvOD0OkDtSaZS00TxYk4lFRmZ80izzY+IRtRcYbc4tamAFkpHTbpBetLgR28esRtgLViVh8pFMjLsHIy0NJgDJPGs5rU60JdAy2BykbcLKz6hQXBagmDeGNtYMOxWWHmdhrkaleqCiKISFiZ9RIG2T96LGkMXCXrv91EuOIm+cx820VC8k31AIjW3ePeg6lIkpdWGPNL5PgEpO1f/KQcGvQ9GoaCisxrSUA7ASVpZIaFQR7SHwbcLQSiZpdizy2kRjAY2khT3NoLa6ahaqgFxXbl4iEPvWnltheXYjVXV+4Ag4Ao6AI/AcCDSYmM2J1ZJiyLkiygZOOBN7hqFkKmJeE5JI11ALqeUqYmJSyKEzhorKcNgTbmmIRNxLQvYQZ28K7zuBsFQylEW9clYAG3VsH2JyFuSA432/BT7Zbzp+jwu0JHxGxuRxMAwTOFJyahYH7scHXUxGC/9EvggT41UXki5Bg40Uq9BNicQjvROMEQ1KsHw3MPMB8NEvJjOsHFoGasSFiAbSaTVRRpmtSlymZrFkKEtLjPEwiAlo5rQGlJjBc69ohtq85CALczWRogdBjBCwPJbVNoVeqEL52w4XJcoAllaOCU9TmTb/BvKlQUvXQUwscJKdaEHjYf7GQJVid7W3cJDzASWNu4HfzctlFnoVZHNRPihUQo+MgmuZhEYVL03Eu4Y1Jtdljc9rE51WVFJVOI2R55yYskqdXTTiMjdUTq4rN88aHzo+bLuN3oS02JmYQuEHjoAj4AhcDwIVJkZkSikWUauImqELWF5etBi7eMnc0a3qihFNz5hubccdJLWmCfJjGMgwQ+s5RfY0Un4mRPZImbDXjjJjWIWMQgN9EiLUboY4VegWW1xgYqKLknhPckqO8Gvo2ZsPKAdMRduQCUBHNF74XkjLWLoVQQe4ScwSkY2oFZ6gIpYfao1SKrQESY2kKpDA3ClQL6gyQqALBvvYN/ZLyIz4FfGfTAUVMKeSsQNlxuWojeCAhTETCyBLD/M3FVgGCgXOmGGEzh/GYS4FqRS7F3iO5KMgcu0mw6+DHps54VKNlSkLRMkxjKTzCDiPm9PtKzQEx30aQq6MlKmu45gYOWjZI3GSsB+G7CYSPG8eFfw6FI2anpxgENkLTCze+MQ890i3S6Eu+CRBGKmkNKkq12WHMq9NbC6gkbSwp/Up2rBQBeS6yDw7lHCcUbjp6aH33Jfi6AeOgCPgCFw1AjUmNk0TrDvkf+8/fkqXK4JXpZWJZW9vlR1d0q8yslyaspfQGAN6JRsciHNChiL7kFeBkFpyNUS3KNa3xxBCPOAayChwDwrhiJSasDtU51UYuKdbHSqnIibWPwgvE0kgBy0PcX+Jz0hz+5fcDBrFkZRR2D5Abk3OTavUDC2xzaBWw0ZtgQe1ZlAOfu3u+vFhwIFTv2J2RIsexXiWLt2NsqTXGiYmlK8zw0GSaxhCrXUt2LHEjNB6wRGGuTYqVX5VY2LjHnfaqDOxdBWcsiPlHrg3ICXHkgg4j5vt6sRAkNCzgoWq6yAmptqHfhopVaU2x3yASE5lVhZgV8mhTiWvRCNIiI+IYOjwMUsRxgjQGRJruzaqEoQ1OZnrOjcTK07RND+GSCbkPEe+bXxABpjYJntoFOr9yBFwBBwBR+BqEGgwscjGZAcPqFucEPtDQHJJxnKruqLxSE+qTCxnTYZutZgYxdO4ZI6Eh9gtl5mak9MtbZFXYeAeeJFE/xpIlF97UAoU4n5lLEQFg8GqXIhoqDLsK6UKthccB0WmRs3QMtsMaoMubYIHQd3uzqTsoHs/Pu3H7bADrkX/J7YcupAoHIhYPne3qtJexmVtlrbhTFpC86Q5TqGgNxVoEZAuucC0V2i58CghGKaXja2pWENYOtDMiemEJC2J+JVy6AHSpH48ZO9E2N5d5BcoRKyilrizBttjjtr3Uz/gW230f8qWZEAlLMXKyY9Zsq2ITV2OhpVhj3V0tBDwEcJcwEraVavQZUuBNHdU1iVppbxWVPHfAhpJC3uaIR8q6xZqm1xXbh4gIMZrR8+JBSj8yBFwBByBa0dgIRMrEDFMmS1ZmQgQ3Co7uqRfzamEkXRYZ8irE+EpMzGfTVidSFt3IM+hXpwT2z9CzsdmPzDg7oYH+DaXXQh3YibGG1qIhbmf1ffEDsiJIas0BMPyAfQ3EIzUkCLByAst+7LHqTili0S3pJqo1OPYo5G7u254jF4Ys+nNZ2JiLQzBjRwTKE3JnkVenF/1tx7mUsBq6VbgHtgrST6Q2nKYS9zJcA9Y7Id5pyQCzuNmmxODZwDILlpr5ISn5ZbMAkPadyO/uDV00y5+YczO64DGrFxknomn+p4Y9F6DRk1b7q+msBg3QSaRUGNiucCw3BGHsjw3yFlhgIkuOiWck3dWiy2hcG6K2jRgsFDE5bpyv4pMDD+9aG5yItD/OgKOgCPgCFwfAguYGOa+9JUxdqFYKO5hpe+dKHBc5u9j2B1R8ksUfAlJk1wT1PK6wUYVGs0srkt2hqgzsZJAfjOqUSXLHa2FUSqpsnfiIasT0QxZNklUM3AbpBDhdIp37CiuBqTXroK1wFICa20zMaag4UU1BB15jghhqFk+Gh8irFgXTTMictFSzqTXmtWJQZedxE0MoWFK1bDzvBmPw2aTb5JpNUfH9TCXKJDyB4pfNfim08BMzPfEIG0lGYaol2Vi9JaX2X6DrIL20lfttIyC4nIlgVVdC/iAyg8HaKF+URq4lqbgEqAyKhKElI4Kfh2KRkk8lBHUSkssMocxsQJDMwzcJicT/pNYkhtcQCNvpCUJ8lpOtDyhl8ZCapjrys0rMbHyIgJ48gPXl69aNMPgh46AI+AIPD8CVSZGbArfE0tZmLxDVk2IORN7noF92g3byi72urv9pjd7xGNwHPiPrSIPpEEckZ+ciUEwZvbZRyYZImVM7G02XbxpB5CcA3JinLEhsto/7MGXyDsmQtiAs4VhNImqMWLBQmZ0WB5oGCckQ7MgR44QyUQLGSCFrJGEyHDIkOkCTohX8R0/8ov/z361KJAwPbsTJqlOe4nJ+NfgUMIwAlnWZ6YC85wY7e2WDnSk2J7Uw1xqBQG3/Kc0jAUIb9FFayqYOQx2VG4QZYEAbJQc8648bk5yYkwqTMqlrEuYiRqfG6nWhoPYJArZeTEkAmWlBb9C/8KRBZC681yOmViCRrVXQQMXsbUyWEpWqRrIhlTRgTYoMC7sExFg0Qtoy5BZI+3cSCwBddKFxBRHWTRkf+tTdNZCJqi5djN/eEbFbXBpYpluweKC7EaaGe0FjoAj4Ag4ApdEoMrETmvEJVfx3aqu044ISqPIXoL+TIGsV6w2yHqcr+A2P1cKREgSdOfD7uVIxlHOd2c52IF1cfPBaryjI3AtCNQSYmgf7uSRPNK6FsPdDkfAEXAEXikCzsSOGvhLsr6jDC13rjIxm2CJkjxlORcpxZcf0u87X0TzuZRoWu9cCl6YXMqJRRnKYz2wSYndpLmUY8V6f0fgKhEovlKrlmJO7KZuoeqaHzgCjoAj8GIRcCZ21NDdOhPrB/rG11Egna4zRBLxGsXTyb6kJCG615BsvKTfdV1Iswvf7673WFxjFiLadWiL+19NQ+NIslpPtxlcZ+vJBTbUX1JXw4yTV12VX5BSLj/I4OurUntyVFygI+AIOAKOwGIEnIkthqrU8IUzsZJLXuYIOAKOgCPgCDgCjoAj4Ag4AudHwJnYURg7EzsKPu/sCDgCjoAj4Ag4Ao6AI+AIvFYEnIkdNfLOxI6Czzs7Ao6AI+AIOAKOgCPgCDgCrxUBZ2JHjbwzsaPg886OgCPgCDgCjoAj4Ag4Ao7Aa0WgxcTMJ8Xuk2+H2aroE84VHC/JWG5VVwVaL3YEHAFHwBFwBBwBR8ARcAQcgZeHQJWJffpwf6/8C07C952Rhik1ixrWALhVdnRJv2rYerkj4Ag4Ao6AI+AIOAKOgCPgCLw4BGpMDPiVkq1psuTLHoO/6XkJg0syllvVVcLVyxwBR8ARcAQcAUfAEXAEHAFH4EUiUGFiwK5CEozplhTEGbIpORVuFvW/VXZ0Sb9e5Pxyox0BR8ARcAQcAUfAEXAEHAFHoIRAg4nZnFic+MIsGDEtPBSKJgpMPRddkrHcqi5B1/86Ao6AI+AIOAKOgCPgCDgCjsCLR6DCxIh5KcMiapVTs3vzLlkTiltlR5f0qwmwVzoCjoAj4Ag4Ao6AI+AIOAKOwEtCoMbEpglXHQLVuofdOj7Z5YomEYb7dUQLEYveX5Kx3KquIrBe6Ag4Ao6AI+AIOAKOgCPgCDgCLxGBBhOL3DE7eCAPM7t5IBkz51E/PrlVdnRJv0q4epkj4Ag4Ao6AI+AIOAKOgCPgCLxIBBYyMUPEsh06TIasCsElGcut6qqC6xWOgCPgCDgCjoAj4Ag4Ao6AI/DSEFjAxFKmhefhnTFMiekbZeg/tbBlt8qOLunXS5tabq8j4Ag4Ao6AI+AIOAKOgCPgCFQRqDIxYlP8ltjnpL+pLO3Z4UwswctPHQFHwBFwBBwBR8ARcAQcAUfAEbAIVJmYbXT88SVzR7eq6/hRcAmOgCPgCDgCjoAj4Ag4Ao6AI3AlCDgTO2ogLsn6jjLUOzsCjoAj4Ag4Ao6AI+AIOAKOwDUh4EzsqNFwJnYUfN7ZEXAEHAFHwBFwBBwBR8AReK0IOBM7auSdiR0Fn3d2BBwBR8ARcAQcAUfAEXAEXisCzsSOGvkXzsR+nib/zxFwBByB14PAUTd87+wIOAKOgCPgCJwWAWdiR+HpTMy5nCPgCDgCLweBo2743tkRcAQcAUfAETgtAs7EjsLz5TGx3d2mu3tkp3+e9t/23abrv91PP479puu+HPev5+n4iTzdfd11G/5v+N3LCUlP5P4LT6vuhk13laO2H7+ESXWVth00yfEOs9odui9tuu7rncw0RCaclo2p3tmOuuF7Z0fAEXAEHIFperzrNnc7R+I0CLSYmP1q2IdPkb5GVdROTi7JWK5MF0R6GKj345PAMU37B2BAXWUi7x8GoEX4X3+324d+0/S0G7bY14p9HJQLwMG2Hx6jTixg/7DtNttgx8/T9DvoGZjYXHwjwVA5+rl8LcZbwy4iFYA4eJQVQhSogZ3C92Psi22wipceFmhGRk7Tzxx/R8MJpvZjYmfaMfbiWWtLg3J680Kozc7SlZZMhlm9S5jYwYOiFz9fzGuYFSldO+5saonwNKpmUVrXoDwBDrlAwGa9O5FTIHzJhVm7s9mb6YWPH4fN5rzRy9PjeLfttw+lu/+FnT2ZOvzV2nQA3aZ7Ntf2U99NnflviIPQ3RBqk6rJ9u0nOza216gVOxQ1BAShGXYc+6DFGkN9B2Ne101BIEoq65qm/QgyY2+C6uLR0E39mNYM3QSOW2fRnsSMtJucJ8Z3JG2apjoa0zRVe4nY/C/5G9Crjwi1UU8tgFSVDDSNjrafStjqUBZrydr2KOcecUmGfGLeNE25hQ1d+cSwxk/T07g98+2s6urtVVSZ2KcP5pvNcPL+o3zfuVFVA+jK2FHNzNXl834hR+qROw2SioJrsM7EdnchbOOAXAlbwrgoRH+apkJ516c/x/AMY2ONAK6C8QqGOBg13gITk+gtYiMScMfhIIaMJtjV6I36/jgOKaOrh6Sx5JgH1ntFRkbNlkacdQnH23CYhHIgfmo7UYvJ4uLYdZtzMLEwLocNymG91oKPgPTj7yC5nTCxRtVaLUvao7psIA65QOSy/VkOlgup3dlW3+RP1+H8TAzv8c9HV04HlZF0RUxMQ1sKUvUUwlkN6JE5aBURiRCd76dBOEy1F0ro+0Cl4ggYsAEDVKOAZQkS0QblV1VdJbYg8qp/x36Gian7BNRCMlb261A0atYnBIOoiFoIuBkObIU0qqAZEqExHpdEF/BKIdXsbJMDF0fZmhQdowEJ8npas1Al5LraxmNHJGO6xkpl+cFqBGpMDNiWyYNhDozPG1VV9fOMpdp1dcVV6UJa1Y/ElJRQNZjYEy4S3HACbf9Ipx0SKORKmy7Nkk3CxLZ0O9nviOaJEEKwdM38zDmi22diEMAh40oiuegU8M2SaSEKn4lBI1GLe9X5yWXC9xmn6uY1OpYD8YNENbTsvu76b8dBqNfuayIhGQGY0Ssh/kwzHtDDBuWwXg3fC1W/GzhTlM/DRtUyrwvqmh3LEyA3rCkElcolCX3h+oWVwAufFgV1eN/UXqt/UE7XwZnYEVg+M8mMw1xOLxAXQqqgoXwSbVt2FHnf6EVVY2A7NnwnIXncTAmiQPlQCAfiDV2nYmLEQ/ZMSAIByHCLQMhOCn4dikYmmwtyggFkTNhXg241qgKHVBxQW67LDmVem9hcQCNpYU8zqCP6rew9tlAF5Lpy86zx3DF/vq8S/WAFAhUmBswrJMGmaQoF4YjVZAXY2CbRpumq2NEKeOaazvmFMQAQJDzYmPtTJSeW58ooRQYJLqJzTLdiy9Kq/biFxJpJi8EFY9YlUvdWJMRrmewyOctS7MtRS2OjljqMsXjFYBpsWV3ysL9gHpgK8RZWaeBFSiWSo9WJIsQSUUoPmvxYam2kMUjQZiHyszSs2guJxJ5ykghySiFq4XsJDUCv/3ZPVf23ewyFBUb2PVhix3H6OULe+tW0MEgzK+6iwjBzaCxSfOCSUHVNXWUL1WUUshu+HPc6yjAokTGqiEiFxdDYDwNnq5JeE71XWVga19JV7tUclLYNM7woxdnMxkaVTmM9aFpYgTfCoTIBQptkHpb94lQnPiKB4/QysVgtuhHFd85lZ5iWuRthcfem297tHu96WCynN9Sn3QOVwAq6/s6uRoiqcIldeCC3f7zrYYEP9SouKF9mHzzaQ9toCV/4/92O1xBt+gezOD6wGllh9PQwkCXbu7B6fZpOaCEuZaqZkdrfb+92xl5AIdismBCz1VFIie4Jjc8Ihklu5OEphbDAzTIKpLbnvagxZLGw124/9ZL1yhvncXODieXdg65DmZhSF/ZI4/uEDySn6n/loODXoWhUNBRWY1rKAVgJK0skNKqImRMNtglDK5mk2bHIaxONBTSSFvY0g9rqqlmoAnJduXmJQOxbesQPFXRn0YtT9fhBEYEGE7M5MSJXmBQD4lWpEg3YJGJyc4xFep7i7xXpogQX/vISodK1gTnjItcD7xIotKWt4sJkdaIhabYxSIKNOvIl9hp1zR1AuGO4TfmZ95yQcqSFvRoCI9VhxZHJURSDM7I2ygZgDBcHoyBcAuuGDSm7y8wA12LJ6CwGnYpb3EsiSIos45aKidim0NXQIGnMwb7s+693wR00jN8GzOysCTScpGAhJKD0vTXwy5zyNjBpxJzhkzIxQ0cjNGoWBvKGzkJYz+RBaFgD+QBsZkalFw0BoBr60iSMrDXLfQMFKvSSQWGyl2FYmVFBpk6J9KAwD6VXoyq/eMVC5ktx34MnQJiHRZdzM0JJNFJhOLLLPwUkSEAc5Ma65m+F5zCvgJtrID94LPfaQpW85V6QecQyn4I0MAl/e1IOQzESLVTn49h+5ooFmUdYmFMpAod+Ewu6BEMeqNQLXAoCPmqwFzGxgsBjjKe1Z+FRKr1ygyG7zaiwrULA8lhWZ12hl5IZ4h5I9khjHgHncXPCxGw+pKXrICYG9hBd2ckiSTQeaGTMB3LLFYHiQcGvQ9Eoyi+uCaRhoqxmcC3r36jipYn4pp91gSTrGtEkX5rXJjqtqKSqcBojz2lbZZU6uzQ5FovIdeXmFUcTr7TweEmkOhMTJBb9rTAxYl6aFSNqxfwLT8pVVZVXxI6qNh5S0faL+JL80uAmhfK0VPlVojUhbHDfkOyZJVezTEx7kXy8KvIfoiRGqZ1CzBQF1hAcp/GoRHs1Ic3yqkCI/2yUH0e9laBfY3c4oO7qgsSX8sA+CMfGkZshpNPu4kXB4DhUhb7NXom6PFjPSwzTILQDGioNepVcNvmH0KshUJhYAKRgD6ORhshoQ+jIMKb4RL3UfmocdFUnAHiBTu3HL4eBmKE2biCvbXLj0yoDlIx7MExK2qOcuqO9QJddChuhUUFs2SWGkvNsHshsVKlhepBaWECD7dSXuKRvYwKYeWhcRl1ySeprstEUghmiJFkUQeHaG1Fyx110ymH93eNe+cDTA6TF7h4nOthsx0dM4jw94LYcyHO4ajNQ1R/SOFsZAAAgAElEQVRWNSg74mPtlaR3FllVaKTmRXWxcLKKeY4wse0D5qAeKTOGv1nSi/2S0yRVFSlqnyQS6DQP4SaBNK4quNYQKFUnMz4OcylIpdi9wHOQPAw7fCmo8iKQzZwwbBorC/eAzBVG0nkEnMfN6fYVGoIjaQyrFkmZ6jqOiYFhtDWI2oySw34Y2cYh7TlS8Eslr0SjpignGJQhDEws3vhE6Tc5W3QtMhsNJmm5LjuUeW1icyQ2qctP61M0LJ6kXsZCFZPrIvOsv3AseVrtiJerPg4JxX60BoEaE5umCTfmuMd/7z9+ipYrNqrKytuMpdzn0NKr0UVLBGXLRMqPSdoqYUrqq6VbVKgt8yosQfnp6sQ/5MCi1YnwexstTyHZEtBIRFUM9UzApO01clobBqmE5KAmEEJqjczkwARkxZhPwmVYsTZ+jUvgNDRHRSFORfl0mpABi0ke8BX0JpJpnVuMj+1VjCytUvHCDEodDbUwqKi5bA2rC2QmZqC2tk0YfNuhCZBW6HFGA6J5VUWjaqEyMfwSA+PMMhUNtVlh0QOpMmZUdYUhyAeloUtUWAtFVDpbjBl6aaRtpK82KB40ejWqclFZ49hTMPiEE0CxKh/A0PTjj6JULys0EszQktyRpETvtSsOiIkBP0E+ALdSZWLEEMxjLkr1QJu0ynAPIWlxMireUGmFgdK0QFegiuynXwB7nK8hCsafwcJItSLJtj/Bro9RavEIJnZ64zOCoYmOGhPDlxKq2xIWeik7Uu6BewPuzEpIGeeZHTsCQcIOLV0HMTGN2od+GgfcMlFtjvkAkRwlM2p/7UAlhwYqeSUaQUJ8RARDh0+zZIGJGRJruwKqlaoEYX05MNd1biZmiZP1sWahOpgj3zZeO9KtkBIOodCP1iHQYGKRoGSbDlvXqNJmV8OO1KLTHLT84r03onAFwgl8pqj8KrEjL1dOxVXC5XDJIaZ8dO/EUMXvienVcXhOrBoiyyP2dWFQEhUlp3lcBRFY9Gg8CdSywBqiVQ6Xfxz7r3eQsqD/U6yWxpfhST+KCikyqyiOQUVFYlgqGd84igNEa20LWISFvbAQ1dFQC4MKbdwwTNtYLXJctxAD4kDSUhYRbBBRAGZqRtSrqqtqYWBiZqRYpqKhVWqSHkiVMaOqK1Ag6B6PaUOXqJAJuRgN7pgiFsxQyYWDRq9GlbWNjrPGxlMAzWSoDIbYNwMZLU8Fpr0KvrBV0JJfg4RZx6ehPUpeeiNK7riLThtMjKrCNxppJfgGHnxlVc/GxJg3Qh7M2ACuU04sPNE+KxMzZuB6+bCwUFJzV87EiozCxtY0mzSEpQMK8ZOJVgjrlXLoAdKkfow23AsqsuyEEgDOjwltaOk6hontp37At9ro/2RPwsTMMs4EgeJpzgeSV9qWo1GUr7zLshTAR1KXBaxEULUqY+maO9KZIDKiocxrtRkdFNBIWtjTDPlQWbdQ2+S6cvMAgWzW4VUd7iAq0A/WILCQiTXYVqMqGNJiLKHVaY6uRRflqeIHx7qLRs642HnuJYSN907EU6F2/QN/YaySE9vv7uiDY+Z3A35gk3X303xgl8edIfrR0C0NsObFFoSotCRknxNejPnI7N23PSZqdrC9XvTCWNgoInoBDHWZ1VPBkVxLgTlkprZ7FSRYEJRP2sJMhSKpUXJQqrwi7RXIZ8aOgsutnBhIthimIXWwoWF8bFUVjbiZ+ksDlw0WW5IbEOSD8YZvW1+qugIsIDlmYi1d4n7eK0M+xRA8XWCPAUSMbPRqVImpQWDa2EwbCxp0TI3PMSm5Y3qhLpthw2N+BCPoKffWA3GZjE8NjmvVwUN+ZRpMjBNfZnUiJXY0gQYva8HTNyUblOqJl88dYlSpD+XE5FU024Io1vAAnzIxyyMiJrZ/xCWX/K2Ts1iIZmzHJxSuiUROYXE4J2YszIklL7ydCd56mEsBq6VbIf+AvdKVgTgs5TCXuJNhYvACEuadkgg4j5uT98SIXbTWyAlPyy2x86Z4TNp3I2bDKFUVvzBmQg/8hpXoKkqzhQW/DkXDirXHub+WwVbpFmUmS47kAsNyRzS+PDcWcOACGtaT5HhuilryGSwUIbmu3K8iE8ObY3ytikz/uxiBBUwsfi8sklypotfK9FWyP9wiroUdRdaf4KThF+WyNCuFS0TC15yZiUU8jdgXp7NsWNLLNK/2KrE+q5pW1WTPLTQ6KR5AZGNi1mIbfhsqaQYxVhTv1voWy6NYGeO/JPtke6VBIYZfWCgGkAR5hJ+Ea5EuzF1YjhG+J4YeaRYo7sXBayIZjGz1CtzAumOOJQC1AWUVjeVMDKNkHa+qwBYTQ0+FBdFYW2JmP1KXGU8YogRL5+po1CwEvXZJJI6CFjaQhyo2nueJyqnpCl6UBqWhizsWeqWzRS0Puq6KiUXT5rAJsMRlM//NZUXTFUdHcmLZ0M/ufSrA8m1feMai155aTCxQLLNvBz/1IiWmPLwnlu4WiMsU5UaPNq6ykL1KV+UZgUzS7BYXlh8aI+WRHef06nmqQyykRYlb2OnR/EI1gFIGayzkZFqxil0+tfH1MJcTUJIroPhVg286DczEfE8Mvkpc7GW5B73lZb9XhkOdx80JE6M9JJQEVnUt4AM8t+wftFA/Hg3Ms5OVewlQGRWxYvLjgl+HopELpxIaEaUlFhneUaNEtxpVBfJmGDjIV4ExGoklucEFNPJGWpIgr+VFDmkspIa5rty8EhPDi1CfqQSlfEmbizzU+VGGQJWJEZvit8Tkm87UvVFlG7xyJoZkJNyAARlOakFhlVNBO01qAZ0ZZJMPwnb/OPS4Qz1StZ6/LRYzsX47pFsAwyfH6AVzEkP/z+OeUEJRaby2krMBSZWG9RLr6AbiSl2CWG1jD9oCk1qNm1kCxohiJ2mkCFtyF9wg5gDCdLOljxKdQwORoFG+9LIup+bFHTFMZ8Jte+HaxSY+hfAdYEzVUUg6y8TE8i5b7VkW2GJi/CYYYd6PP4KEJDIuDIokedCStFedidVcLlGXaN1aFXliOGjGsEM8jfFVNIgYVAalpsuW8xRlXS1aktoQzyh74djjgi6ZwI0qKyE+Rgtr08aMbzqUASh9zmQuPQM1WGVOY+18x4A2wvk5SQgm8YWTABVdX0zk8jsP3wAlii/EEPYWScdNJgZ39t2dbiK/7e/MfvS6O/xmOzw+4k7ugR3tzd73ORNbZaHaDFu3B+4UdIWkXOSxKOEusfHwO2WlyWaMokw6RxKlsvZXOgnf43bB7O3wQFvqk/HSPjhlyOQTbzHSnR3eephLDkDALf8pDWPfhLfoojXFhjkMdlRuYNfjQUvqLpyN+uZxc8rEKP6WRXe8k55YGHQJE1PjcyPV2nAQm0QhO/MNBMpKs7qChOzIAkjdOXpCXUFIrLraK5OvBWytQKFklRoA2ZAqOtAGBcaFfWxKTbXAyMqQWSPt3EgsAXXSheQUR1lVpAf1KTprIS/azLWb+cNcNG7TeEmMsvB23XZqsJ8HBKpMLDQ5xVEjd3QK8ZGMW9UVOXnICT6NjB5R5GHKqUqQz4QQ6lRiXc4BCKRBfzHk9UJHIEbgVqeN3jopO2M/s6VVV3JwSgtlyV+yMIJ4TlK43P1TWrhc64lantr4dXHziZxwMY7A8yGAt4/agxhK0Ndqn8/oq9TsTOyoYbkk6zvKUOqMj3bNr+4BYf2iLvSsOks3Leobh4Pe5XgEbjWkPh4Zl9BA4FanDd9HiYLYnNEJbrAnFXEqC/nZNOaUzBtiZOtRTOxUFp4UtqXCzmC8TUrsJs2lLLXI2zkCLwoBuLMkqW1jv7wSaor8sIqAM7EqNEsqXhgTg/zyHX4Eh5xrxGGHVvGypWhdn5OrZ0XgVkPqQ6dodd2aC7QI3Oq0kT3dGzHEklv/WdvwS071KGeNdmFiW/msme18KBM7qYXWoEscn9F4WjuHy9vsOrRLeHVaHcaRZLWebjO4TuHJBTbUX1JXw4yTV12VX5BSLj/J4uurUntyVG5CoDOxo4bx5TGxyF0bePmxI+AIOAI3j0B0B/QTR8ARcAQcAUfgeRFwJnYU/i+ciR3lu3d2BBwBR8ARcAQcAUfAEXAEHIGDEXAmdjB00NGZ2FHweWdHwBFwBBwBR8ARcAQcAUfgtSLgTOyokZ9hYrJCv7ya9ijN3tkRcAQcAUfAEXAEHAFHwBFwBF4wAsDE+PtgHz6lfnz6gN8Tg//Zj4NBs0ZVKgXOZxhLqcvBZVenC/jYad69PhgT7+gIOAKOgCPgCDgCjoAj4Ag4AleFQPceWNanj+/v7xMmhlyLy5CrBTLWqKo4d3XsqGLn2uJlfsF3Fcze8WuVeHtHwBFwBBwBR8ARcAQcAUfAEbg1BLqPnyUrFjEx5F6mBMgXU7FGVRWdZYyl2n1VxfXpcia2agC9sSPgCDgCjoAj4Ag4Ao6AI3D7CNB7Yim5ogWLCRFjKpa2pXWKIWEmxE6IG2J4fezoNEO7zC9nYqdB26U4Ao6AI+AIOAKOgCPgCDgCN4NAhYmZFBizso+ygLFRJaggWXMmJnBMzsQUCj9wBBwBR8ARcAQcAUfAEXAEHAFAYI6JAanCfJemwpSJ5VV1SJfljur919Rcoa6ncbvpH57WeOFtHQFHwBFwBBwBR8ARcAQcAUfghhFoMrGP4eWwsF6RmFixqo7TFbKjurEralb4tX/YdhvnYyvA9aaOgCPgCDgCjoAj4Ag4Ao7A7SJQYWK0vtBupxilwu6jnRa1qg7TCsZSF7Kw5gp1PQ7OwRaOnjdzBBwBR8ARcAQcAUfAEXAEXgUCFSYWUmCMgi5F5M+Pmd08TFUVsitkR1Vb11Qs88vfE1uDqbd1BBwBR8ARcAQcAUfAEXAEXgECNSbG325mwoUpskC+IAkm+bKkCiHDMt+xQ6ePMzGFwg8cAUfAEXAEHAFHwBFwBBwBRwAQ6O7Tf2Y/emRcVB9oGOHWqOKsmTMxnWHOxBQKP3AEHAFHwBFwBBwBR8ARcAQcAUCAcmJnx2LZKr7TmHF9upyJnWZkXYoj4Ag4Ao6AI+AIOAKOgCNwMwg4EztqKH8f/yvL2t1tus3drlzppY6AI+AIOAKOgCPgCDgCjoAj8AoRcCZ2zkFHDrbpNtvRvyV2TpxdtiPgCDgCjoAj4Ag4Ao6AI/DSEHAm9tJGzO11BBwBR8ARcAQcAUfAEXAEHIGXj4AzsZc/hu7BaRDo8LVJ//8xCDRG4hix3vcGEGjMDa9yBBwBR8ARcAReKQLOxF7pwLvbGQI3EOw+uwsZqKHg2W1zA54XgTAV/MgRcAQcAUfAEXAECAFnYi94Juzuus53AjnZAD5vnHob2uPBgPck7x657DYcdC8ORiCeG37mCEQIPN75vlYRIH7iCDgCrwUBYGL0IWb5VLPx3Hw0zHxljBtUexkBenh9O8urac9x8DT2m26QEBUseBy6Tb92X48VTCzX2PYb23fbcS/NQFdis1Tdyt+DQ8yo49DBvx18H2Luv303Dl3fd/vZlnGD3dD1qKXrun5Y3b1o2G4MMrshWL4fUdNSI81c2D9so71qOhYllsNfETuqP6aWMORexiS1vyBwDvliF9Bp5NMIdl037gMOoHTfDbGdaYN4mKap5TJ5UdU1dfkozxq/N4NoJ4ZqIXSHkf3aYUUvp2DSDpvIuCjU9oAGK5nhWpjoMmaYubHqcDdMXRf9N8hGtENc3nWTVu1H6CINI4W5wH6MGhRO9lNvhE/TRKpJflkgdumGWNgOrGqryy0H+f0E92KSabxO/A1AUftY+din2qkk9BLJdOMv+xXLPOCMlKrlIuFp3PomwwKG/3UEHIFXhED3/v7+/cdPH9/fp0wMaRh/0BlZVyBjfFrqVYHOmVgETM6LrpOJBXK4GzbOxOK4PAu7bWydxKk2kA3HC6Le0FjUJZEukIjdIsNyUVpCEXkgQYaWcPTfDM1Vjpnk8IR7Ez1saNGSK2JiOCg9Mq4IWBqsgBEcHcvEarqmrjjKbSaWDqKhl7k0Zl/ilE5XGojIcZl4OsqkSLtQeY2JAUw8eczsWHUIfCDhM3F/oC4Z8cj5jHaaFagtw0HMxIiiKM2rCSQbwuOsaQISkpkatOBRbjnIN0xMOQy1pNOkF7Edq5pY3FjCCiheqbzmV2Lw8lMyctyltFYkIBnTLLqU+l9HwBFwBG4age7jZ8mKMesid5FsmRLgZUzFPn3go7RNAyhnYhE418/EHoduO453krh7HPqH3biV08iZl3YC4BfTj8fyGQpJKepN4lSNYqMDioOXkhwwT6PtUdjXbuz0OBKeBdCNWrK5HX83upsqngyliEqYmKF5piN4x0wjblAspI6NqkRyflrrSwiPNDTGEoLIZHgWzZaaFrKnpmt2lAti95zSJHK43/EpjSkZz1VxkpMYVETM5iYkmZfMcJCDHSNdEdM79EYxyweKLCJhJlb5rEDbmI8tE8O8liU5DYGQOlMaiR2VRxW0YFFuOcgvMbHJULu8F5AxVa1cCx2xxpMZRQwbftWMb5Xvql6EXvkTnFDnR46AI+AI3CQC9J5YxqnSAlqnGLJiiEXaSAHCCiFuWPoamRiSmT0kuzpY5kfr/Tb4O9xiYvtx2/UP+/1DDx2pryLL6xixnGrNe2Khyya8PxYVUhf4vwkHyMJEmhqP8nd3/fjEhpEtkdhgw4zxlV4gklY/sstoTP8gSyOLFhIUsH6S83XLF0+SGVHCBkzgRIQmOiimpIiTH/nr+rQ+yodES/swbUK9OGKWRErfdztc8JaUS31Y0wiRtCyEC9G/RNs1ymTNCL2mLjU+S+bY6FlJS2RkFp0rW1DjcYEfzQ4Ip7Jv6JWJlqq7EiYGUBhGwXxjPWcmvwqUyTDksq65US4ClSuiASKKFY0vydcBNWSJ5kltdulIkWS4TFAUtS8zMWJ9TGhpbqz//ywfKLKInJmo5lmB2jIcKBPTg1A3NQSSGcR8oNlcQozTU/G6ytAx065Vub9Jydjzqkg9MB5cKCfGGjMvjCWlhzhQTWsXs7uK6emHjoAj4Ai8TAQqTMykwOg1sg8f8wWMzsSaYx5xsL7fDjslYHqgAqAxJWqAzBgChqdKdUIz6Bm9JwZpK6EuSE7MKfyOpW+mkWoQqKwMKQ3pIiYGctBsIDyGiVV1ifFsMAgMZlR7TUiNxAzELdCkmoWGlFLjSIgCWztALfF+J/NMLLAOPKIwvcBJ5G2liMxQZ4yAC+VGYKGWYlkTNGtYrAcFMyTapgg7Mp6qRGBUJTwtMkNEkbqCLl4Lh3DDRh3bMBl5CISJWWUm6VQkGLVCMiOykMTGdio4+QH3jQ0gakHvjJGPRDPomFiNVaqkPZdftVA1EiPCU6uL39SSKVSUnBtvLYxUo3zLxKilfS+OCRi9fLgAQNI+7mVAUUXCxMIg9/p8oXYpzpU3eA51BcqRMZyEh1glswJtYz4W8lCkMW2BnJsSCQXhcVFuudItWmEod0ropomvvBeVcPoLtdMxlBfhygrbfsVWrzlrQoHvl+ovnop1JqZQ+IEj4AjcGAJzTAzYFqbCCrSrUFRD55XmxGiLC2RBSEiAmQBtyHkREAPDxMxWGYZgGC6EQEdMLIY+rco1QvtUoOqCA7Rh/9APd8Tx0saq0OhCJmaMN1XanA9MFfYKv71WkT1GiyFVKJFIwtnAx+Kyw1Q1nyMmZleSBUxMklq0cwOE6VkGg6JezqWYBIi2DFWVTAvHzbT+cG+sEuIUJKh8MYNXKkqvkK/A0BgyctpyL9szhKiZjyKCUTKSYnduRg2YYAC0lafaErhbddyLV/rlBOPCTIwMINDomNiX5TlsJHoRAaVjYQ5sY/ZbXK7pOoaJkeU1JhaAjzO6qnHhO4dk+bjHPUXsokR0jWZv0IWbyqBJlctwthj4gOwkQQfJ4roqtYgzS6ooFyh3FG2SHSB5AO0ZXYFHYpmFkUDapSNeK5gpCAU5pwL5pDfmMJZr5b0ms4oygsiUq9aogZTO+CXNVv+NvUi7Pz30eUY9beTnjoAj4AjcDAJNJvYxvBzGmbFP1nFnYhaN7FjJVWBBi5lYoCVmW8Ugh3UZMgMlcBrWH4YFilCX9UURmASzXeAYgghlYtiR6Y1VV9GVcKo4a1e3UBkgWBXxq6qF0jIKedAp+h9aElyrMTSST0IM58Fg2nKqiHvI+1oQpkc8BBiF7TVNuDuiDUttrqNEcpQpxZ1wWw5qbyVo0J+ZYclDYjwzPbMxYF4SUjElIzmvYkwkxkLQAxPrH57MYOChMDGhIkGFeMG8JW5QLMzJRi6tXVIUGwFFlBVzRBZMEkslS5lY7BFJqOlSXlTg23WgcgutgzS+OlyWsFljZGuNmVfgSPKIbH/EF9LomPJs0VyytD+dD4vPgQ+Y953yfkUWUWAm0nNWoDQ0f4U8RO99Sf2swML+GdI3/5tbDvINE7O8VHcNyXtRCbFWTZ2RuiHbvxEaZyRz1q/c+EUlAma5MTCxeLOfcjsvdQQcAUfgNhCoMDEkWdF2ina9IrvuTKw5By7LxJAaBVpiWRNYWWdiYR2g8SYwMVOoMuu6Wkys3otWJwYaaUwS7mrMCIeAcHA5lC88QkxW5cQ08tbA18a7FNRSJEphNEXbGgHTQYiwSySnxcQkrs0j6dwMtRDYIL5ypsZHsbLhnNqAHOH/l4xkdeLYMOpO+gD9TE6sREtIV+7FopxYXWDkiNCYqi6BV9ziv2EZnlm5dywTq+vSCZCPsrqTA5WX2AmgI76n0czIfN5ddRUOUMiAO+bvcHYNO3wAgQOhuqgjzT30ZeFlmTWb5QNFFpEzExU8K1BbhgMlD3iQbEM/K7BoYRAeH+WWg3zDxIr3vHIvygqizZa/5cm9ooWzfsWGLz5TMIs9PCdWhMULHQFH4GYRqDCxLAUGrCvZsCNr0wDpta5OxFRMYEHKK+AgvEBFOSgmFSmZMfmipBecyptO9hjGQVkTD0qwwY5SqkvrmkysoSsVaMyY6WXYl1rB6yfFR1uOx8cwMcy8xZI5nUURsJIoy6mIq0Qb02loiymmqJdE20mvlIllYTHHsrI7og2Fg3zJaPHeiWKGrk6k/T6sL0q0klhZ83jawGrkFI0hIdw+vP9jUyg4Lu33xOrEqcgHioVkYaMqciHmYNW+gmHCxCDdJ0PZC+c8lok1dAlzhq/SJaMsjhQcF4HJZKNTO+I0hSSH2VoXWsUQdcGOMjiUAEUPWzWSTKtLrxQ0I7t+FxbM8oEii8iZiaqbFagtw4EhDyTZ0qFZgUULg/DkKFs9GDJaxoykU+6vJr7yKrtwkeQULZz1K7Fh6WndC7jlw3cI7aKQpVK9nSPgCDgCLxOBGhObJtwu0X5PzOxpT75Wc2KUUbPEzZkYMg1gI0Q54gQRlAsxi8kMMiipQn7Fb2EhsQlMDHvJC1ooXEkaDVZKhKgUaV5hb3rDoMK8lsKGrtj4iBCu6BVUMkctWAhtDmViFa85d5QE4paJRVVCTij0jKqEXDWqIMyV+F77ki6Os7UUD5i/ZV303R4laaGfWEhVSrRsrEzRdl6imbQgDY9sZG+rZKtGGrrVeycWjBcMi2iQGcWqQHSFtxQZRU5miFzZTJRtU9SlkBZVNBJ6bV35xNBRJkXWMFWdY9gL6Y3GVzibBaooUCWnByKB6Vx8WpjzPA/5sn4cNpvC1pr2oo+PZ/lAkUUU6IeInRUoDc3fmDyAhG7S19VmBRYtNNLTw2gNpCVmsRm2W+IvSJDVhgXzUI7N7BUtLHS0Kv9wA145lNy77kU1o866fNViNAB+4gg4AjeBQHef/jMEivauxwaWhpli7Wx6TZQsi1JozsQSJpa81qVci3bRsK97xcki5DP4+tPwiIv69OEhrbXDKt4EX6toppoGdlEf0ZKgEXsJ6YrmOBQS2TOiYl0NJsYrJElR3IvfDQs2BIYJBhQthIrDmBgYX3xtDKgRbcVBgS+FthSwJmGuEA9MKdR7TfJZJxA4svAoAjYNIAci5GGPS78s1dEqaySJ3Usviu+pl7WQjFfaEMXl2DcvaTOxIi3BuJwnDIZoyRdaW++JJfCSC+RyUdc5mBiBEHA2VJktMZ8WgL3uB12TabOC0XGN4czqaozyLMEj9IYxWJKML53atFjNzpSD0UyTxwE8o+TU5sR06hqUeG7QJnibLpkeXFv40+ADwDfi/zRVRcwkqrXMJO5lOUnBArgJpR8jtq9+gYVNgUWeU1YkpdY1pXy5GdIct6E3NliPNDmmje2HyKiwaOGcX6uH0jrFiMmgsG31l8T+f3vnrqQ4s6xtXZcuiOvA3w7GH4G37O1gbAdnOR2Y4y8cnLa2MW1/tv6dp6rMOghBAw30OzExSHXMekpi8iVLJYq0ry+4bPxgcQwCIAACT0xAYmJ3N/A3KrEroZZi5spmXqga6zqnRXtPtd17SNlzrR3QQszUBX5RisRALOCWNJtXYtNUv6F1Du8vomey+fcNOd2/fG009nRJBXDwKgRuPJWdR0yFBou05QL+VRDCThAAgV9PAErs2S4BKDEJgjXDVnedrDmpACWWlYOtRktxDzngCImbIH7ew72JdQ5vbvwWQkViPoV5cuoXH96k00f2dRODFzZyh3HptSGBlCJg764bHL4MgRtPZfv5UqPBMTH3fWLp+AQBEACBFycAJfZsE/j7lJjtXO9WJz5ehk3zHiqUmOdDiydlSxDWN6O9Zq28l8h5SovQoMQeR8BP1nXHd1FiLM5bb/0uL5yfOOfHsYpFhuk0bRZ/G8se2ddtLC5buf1UUnitrc+1r05uaRnOQQAEQODFCECJvdiEwdy7EXglR/k69/r+tWYmB3h/OYGZawNZIAACIAACIPBLCUCJ3W/if7nj9YPDv9+comUQAAEQAAEQAAEQAAEQuA0BKLHbcGy18oNS5Jd33ZoNpIEACIAACIAACIAACIDAMxGAErvfbPxyOfSDw7/fnDlzd5YAACAASURBVKJlEAABEAABEAABEAABELgNAVJi8iLmD//KMGncvTgsvC9MX/usLxOr69Wm/cpd7M9IEf/OKPfWnTO1rnjUJ7yRyW0+fkVTacvy8NqlSd+JvJ+G4kH/PC576VDxDqJL97KT9oveq4HUF+AtUvjB8fYz5bdoHm2AAAiAAAiAAAiAAAj8KgLDn4+PP59/P/98lEqMZZiqLNZqSYxRTpJfvlifHJRYoRb8S3h1u+3V7TWYdHpbJSaWF1pIthaslRgNTbSfbX2u75O1Uyix/k2DHBAAARAAARAAARAAgXcmMHz+Y1GxJK5ovKy9XAoJriTFApCyZMi0EyixoMRigOi0H2RL8EtlSWjz7IuYqhfyXlbd2u8qMVZcErOSwNfJ5BbJNj6mrc9ZcFIjI41ahZk1ftYkxMTslsInCIAACIAACIAACIDAaxOQ58QqNVUmcOSrLcXKoibjQulfqMQkErXZyBuXhr3Jrc1p0CCVC4KJvBk3uswv6JOooEi22auc8tq/aZAWSMtZR6ER00IaoTLlE8JlA7W8P1FoTmJcoQUzY8NiiLQW60lRj1S+VmIydhkmVxcaEjpbbYIS2/OphAf9uKZp8FlSIEXkOjRufE/KC0zXwzr+tTdl7Xfr8fA10ftwpICtYPw6jOv16pisOa7C6cTvKtU2XTEpL53iTaaJHg5AAARAAARAAARA4M0IdJSYD4GJ1PpsLGBkFr6owuEaUGKiGsp/x42qJq9zsjYzwXMysZQl1mQSzjdpci4Vk6iRFAlBtqrlqdmgX0wox2yJaLPVXm0o9GShxLKB4yCqSXUpq8QN/7tnIScQxPhcK61pNIUZsobQZshSGve5SXvPiZmgEgHGCkpE2qwSC289ZhUXxRiU2H1mEa2CAAiAAAiAAAiAwLMQOKfESFTxqsRG6IvGwMGy9rJFP8RfGxMbVoMu0huHkyxKXLn4lcmtrMRs0wvd2cJORc/o2r89P1F20u0xpKSImbD8r1j711JiYTWgrZkMfXGITMJfEvVSTXWiUVB3KRTGKsjrQNFII6enWpuRa600pEaLFa3fTRwXyUjLSpJS2g8WxlpMw196xfFpsx2Gdfk3iqCiip3OKjGLg00TFdseTtM0zSgxyvLxLqffrDt8ggAIgAAIgAAIgAAIvDWBWSX26R4OaymxmTWLBbRfq8RIQrAEouBPVGLtmJjFqTQ31Z2seogB0YmolBRWShIuqKzO6kRaiLjSp9RSwz6KJWaIjvLHG9aBEt2SY3kATLWi12/DkAJoG9ZvFPHakJikwivlI9XFZlWVm0ZWVmIm0pLZcsA0iqvvRqdzSsxWKoauZpRYXsroVjw2Gwkt4gQEQAAEQAAEQAAEQOBtCHSUmKwvzDskSvArxL6kSEjqU4ESI+1hSsxHwErtkRQXx5pEk6i4mtMeGmfzemaJEpM1h4WYESWm1qaQl60JFGEpT3nt+Ymy1d40lUXwkhos1jRSy6wtpYAosRkaddY7KbEcRuvfOMgBARAAARAAARAAARB4VwIdJVbtnUi6y6suCYe5zRXnAUGJeSUmamTgYBE9rGV7bCQBkwSYRo1sEaPoEF3FZ4kNLRezVJLVqxNN2km/yQxVYvaM1oo33pAoFjUlYbrOLohqIcfEUoMpFJZaFpOo8GirN4chrU7MO0mKzUPYR2QwTdinMXMx3ml1YjOcVcTE/Kk/nrEWWSAAAiAAAiAAAiAAAm9LoKfE9AkwlVrF0sRzMqwOl0GJBSVmmxP6YJQ8T+VVk+yRmB6Ram+wYbIkr+irZFgz8JWjUt4IPs56yYRQEo1JiaUVhklVilQTdRSadMG93DIbqUqsRUMeP9MVjKE5OpF2NGIWcznrTrdrY18N6insvRG6dk9/sfQa8t6JsiHHTFiMNlp05UO7OAEBEAABEAABEAABEHh9AsNH+cdFvkRxcQEX/RKdVVZzBSSgFkJoUGKFEqPN2Z1qWfFzUyrDWKWofGIZ49NPbrd30SAiS65TYmnLe3piazOsOBrl9ZKaYTs0kiUxkpZOm0os7Ucv5vmWVWXZAD2NVEu6E6vkiTixJ7XToXG3+5IfFbMnuywO1ldiumkH726/3XyR+nJ7g4gYs9aySFPrdUtG6+VuY0LDIAACIAACIAACIAACP0JAYmJ37/oXKjEvn1702C8vfKkh3P16fkgHEkaDEnsIbHQCAiAAAiAAAiAAAg8nACV2P+S813y1VvAlJE2IUFXxuqcfwv3m9IEtc0zM73T/wL7RFQiAAAiAAAiAAAiAwN0JQIndD/E7KDH/lNrTC7AE/H5z+pCWbQ3kzFNkD7EDnYAACIAACIAACIAACNyRAJTY/eAmYYCDBxO435yiZRAAARAAARAAARAAARC4DQEosdtwRCsgAAIgAAIgAAIgAAIgAAIgsJwAlNhyVigJAiAAAiAAAiAAAiAAAiAAArch8PuUmG4OvsZDOLe5gtAKCIAACIAACIAACIAACIDA5QRIiekLwvwbwaQh9z4x95YxfemzvVAs5PQMeLpd7EmPbQ+nnr1IBwEQAAEQAAEQAAEQAAEQAIE7Ehj+fHz8+fz7+efjo1BiLMM0jbVaU3L1c4LRT6fEJnpZE7YID5OEExAAARAAARAAARAAARAAgUcRGD7/sahYUGKssFwK6bKmFJsoxxVsGw4l1uaCVBAAARAAARAAARAAARAAgV9JQJ4TK3WXLFh0+krWKbakWFXVhF0QblBiv/LqwqBBAARAAARAAARAAARAAATaBDpKzIfARGt9NhYwTvLIWCXQuAaUWJs4UkEABEAABEAABEAABEAABEDgnBIjUcVKq4h9SZCMdu2odFgL6vPFxKavzXY9Hr5a1iINBEAABEAABEAABEAABEAABO5KYFaJfbqHwwollozi9LNq7AmVGI3gdNgOa+ixNJk4AAEQAAEQAAEQAAEQAAEQeAyBjhJjfRV24vDrFaNp/Zxc7gmV2HEFDZYnCEcgAAIgAAIgAAIgAAIgAAKPJNBRYtWWHSTNOpGv11Ri2MX+kZcZ+gIBEAABEAABEAABEAABEAgEekpMX9+s2yf2libqlh3lLvYSUfPC7fliYlBi4TrACQiAAAiAAAiAAAiAAAiAwCMJDLTpRvjjBFTeliNoLZf8EVYwmuFQYkYCnyAAAiAAAiAAAiAAAiAAAiDQICAxsUbGbZMQE7stT7QGAiAAAiAAAiAAAiAAAiDw0gTeU4n9r/vTnp79bj2sd/t2JlJBAARAAARAAARAAARAAARA4K4E3lCJneHFGmw9rLcbvEvsDCpkgwAIgAAIgAAIgAAIgAAI3InA71NidwKJZkEABEAABEAABEAABEAABEBgMYGfV2KD/VlsMwqCAAiAAAiAAAiAAAiAAAiAwGsTgBJ77fmD9SAAAiAAAiAAAiAAAiAAAq9IAErsFWcNNoMACIAACIAACIAACIAACLw2AVJi8vqv8MowGZR7cZh7y5gbsBbQ9z+7jPJwZhd7W5z4IE1YWoZzEAABEAABEAABEAABEAABEHg4geHPx8efz7+ff6pXNLPKUo3FWq0SY6rgqpqNQUCJNaAgCQRAAARAAARAAARAAARA4LcSGD7/sahYiGyxynIppMuiFNMSlOHKdThCiXXAIBkEQAAEQAAEQAAEQAAEQOA3EpA1gaXukgWLTmDJMkQvxUyatZSYBMt8aSix33hxYcwgAAIgAAIgAAIgAAIgAAIdAh0lZjqLaolM+wwLGHM+lFiHLJJBAARAAARAAARAAARAAARAoEfgnBIjGcbBLR8288ctJVZ3hphYzQQpIAACIAACIAACIAACIAACv5bArBL7dA+HZfWVj4galNivvXYwcBAAARAAARAAARAAARAAgWsJdJQYq62wFUdaj5gOpEsosWvRox4IgAAIgAAIgAAIgAAIgMCvJdBRYtWWHSTNeJUiKa/2H7fBR4UTqxMrJEgAARAAARAAARAAARAAARD4vQR6SkyWHdr+9HFBYqDViolJRA17JwZQOAEBEAABEAABEAABEAABEAABIzBU8S0noFz8qxvwghIzlPgEARAAARAAARAAARAAARAAgYUEJCa2sPD1xbA68Xp2qAkCIAACIAACIAACIAACIPB2BKDE3m5KMSAQAAEQAAEQAAEQAAEQAIGnJwAl9vRTBANBAARAAARAAARAAARAAATejgCU2NtNKQYEAiAAAiAAAiAAAiAAAiDw9AR+Xok9PSIYCAIgAAIgAAIgAAIgAAIgAAI3JgAldmOgaA4EQAAEQAAEQAAEQAAEQAAEzhKAEjuL6OkKnA7jsB6G3f7pLINBFxI4P5X73XrYHS9sFsXPEjhP/mwT5wucNtuZ+/S4G9a4ic9TRAkQAAEQAAEQeF8CpMTkRcz2Fmc3Vvc+MfeWMX3ps38RWfdtY9bYzC72VuS1P9Wx225Oy8ax3w2kpvzfxU6Z9DUeFnZ13iB2GNfDhS1eV+u8NT9d4omm8nTYDuvt5msRkuMqXE430epfm3E9rO4sBOleqG4cSqQ7Qq+yNDR/kd76Jir7uuDHjjYobrB/X39ttmuIsUUXNwqBAAiAAAiAwHsSGP58fPz5/Pv556NUYizDVGKxVstirPU253k8767EyOVaHTbjelzoNisucuAurDIP+qpc9UC9k7ugnetqLWj4Z4s8z1RSzGS9XAaRElvdOE7aFhg3niCSvvNKLIkZtqe8Tm92E/EVHftaKsbaoGKDLWwsxhDzbKFBGgiAAAiAAAj8AgLD5z8WFQuBLdZeLoXEV5Jiv12J7VdFoEB9QXK8Sjdx/hq6mRM5TTdsat7m9859hqlkwhf76G+lxNKtVIiZ4lRJ3ejnjLJxjo4u+6GELps6eFg22Lp1LtTbrSaQBgIgAAIgAAIg8KIE5DmxUnfJgsVCiGUpdk6JyXLHJNymaXqumFhYx5XCCOQ2jYeTLk5bN1ZM0Ryzy1X8hJ9+1E8H0zTZ8qpwYfgC1lrh6s2a4S1PP95bD2L58iDKVKz9CiJSxrnbnw6rUdZQ5rAFO5i2sDLUMlNu9jlnBtm/341q3npcHXm9JjMqrdJ2ztqVJigd/MhUThM56OW6xOOKLjy5Brabk4wpxcEoPV3M5UDl2tA1ftWV45b56dUYyttU+/ZDAd+gGDnRrxXSnVyQXD5e6mz/6jhxVmG53gV6heb2+dLLpzxMaie2zGsau/dy9yaqGqeSueXmkEOiDdlAaYO5TL6H8gT1JLesXSyvgVwPRyAAAiAAAiAAAi9PoKPEfAhMZNqnW8BIufmPE2yK46mVmPl/1dSx25QFWOWWTeIy1lEvKqmev3MKybutHK9SnrnyZo+Zoe4mebSlrJCHZwp/VOqLl9nMsg78p3XGLmTohjGlp3PkwAr0a/m2b3K82Izs9UuVAgEnjodzNj3NVNJGHdvySUCZXNVg47hd7XlYqr0pt9AzNtzjyqaOdGW8olgy5Qv1tDm4FY6+fWuMBDDtGZP64hYSbzHSAkSuZNEv/1Qh/WbL9ytVPjQRPC6+1kLjWRqpRWRkkWhXqFYsu+aKsWVKKlOc8dM0x1B/oKl+BDEzFG/TDKK5bT0tBiXmrjgcggAIgAAIgMB7EjinxEhUcXBL9NjfkkItusoSfP5EMTFy+wq/TUxmtym7pIW7yY6j+ZdhjMERzM4WuXHSWi5AXTifuLmksDSjFG/UN5dJ7mmwph21K4qUpxITqSzjoMZufzINWijLRq2yYXfONuegQQiYuGLFIUsBUlm1GeLybzd73tAih4okHMN02EKebC58VonlmQqK5fFT2Y6T8CDI3WcqPF10vTklFvaACfPpuPorKogNV0YPuaNKYLhOpZy/p5KRkuWQUr/5/nKNUBXWdVw3jqu8bBqDcl3YCK67ieJtlSFbq+7TM6TkNqglZlDlw1jFP11fOAQBEAABEAABEHhXArNK7NM9HNZRYrrzol+J2EL1REpMZAxJgkKPRT9sol/BrQx5jS4IEEZY+LLZ3TT/kguIAKMugivZcyKdyip9Puq8MjVYpCqiZ3BZVpffFaE3di2z48w+cj7lNsiyolaj7e8l9c0QrEXUjsfMs0Uuv0wbE2f7K0lR2PY8U0lKbDyUeyamCzL7/S09U4yKT2WuMi27wFpXl6ufO3KJyYyU5otRbgqXpRJ80CtG6XQz7nfj5rDiTTLSuIpLnafUjNfWrbrrrKjVXCpcltHbyv1YUFwvPYbUrx9atqPsokOblNgFW7Pk9nEEAiAAAiAAAiDw2gQ6SkxCXX47Rb9eMQ65n5PLPZMSE6vYSQp6rHSbnBKjKuKHFc5Z7b2xs8sazxxE8i+Pm9GkQWjBymRSlcpqeW+Vqa5+80k2n984lrFVGtGFMFjJvIgSk6ld7VkTrDgQs6fldIXyrjikS8JHln5mKvsxsWSPhMKSYpEfDtoSiKc3Z7kravZC6gmMq5WYu7b3O/eThN4Fp812tSf5LP/KdJUWFmqZJvFmN1HZl79C+gy5FNlgwclcrWzQkc+FEBPzLHAMAiAAAiAAAr+KQEeJVVt2kDRrB774obH6WbFI8fmUmNjnXSV/TLm1zydhmFqwBHGVn8ORh172K9Jgp8123Hylx2CMzs2cSGtQFFMRNLDM7ie7mc41Nh88S6/vKzHG6wIOEp+J6GoD2cNtm2EmyepEX1W85s1hpPAK6wbSY71IjdVsONOkc3i6Hz6V3efErlBiZRzJ6wFB5Z4MMxry2WDSiv8QY1N6/jg2RmeaK3LLsuUuOG5Gvm73u2F1THfK+bvyIUpsjiENownKKU8Zqidvg+8+J5YL4AgEQAAEQAAEQOBNCfSUmL6+WRVWd2ni1NRhElHzwu1ZlVhytaslf+xaBdElVwCnR2lgPqheIuw7qvoaxu0ojZCK245jclhza/Lbf7q+Stez5b2VZaSyCMVz2iZ1ZP5jXrImOolMV9cyjtNCZIKgEFVSyzd+k+MGbjND/NzCDPblBYStnGQnOu/E0jWrISF+bCq7eydKYI+p8ETT4HTGG/bLWNMo6JSll7w0mXMFcJbucccO98yd5xb1m7+Jktbyxf2xzUbuMS2m1Z8CbPbktiou9diXNExDuMlNVPTlzZ5lSAV5XGFQ1VdKZz/VdvyTQK7XF71QztuLYxAAARAAARAAgVcgMOQ9EPXICSiWWZLsg166dLHOsAE/sxIzP09XoDmtxc6Wc+z7koa8Lskll7TSINwFuYbssJqPGDWFOsSuO3uHbOkOUknz8Arj80pIlU7Wl03EuU+xyRuRFEs0l2MZNtSZWuc6vDh/xgxq67TZjUFJCikSJelBQJtXg9ix4Ymmki1kRzy+85eGxVPMVBYrMZPVPM+6t3uAYeooM3OMwmznHx38BexuorNKTELNxYUqBlii9uiUmLtC/V3pbdCrQMd13U1U1nIUzjIMBSxCWDbo72VrvP+QGMVF1+shXgNWDZ8gAAIgAAIgAAJvQEBiYncfyLPGxPzAS7fJ5+EYBB5O4D3f+Uu/JlQ/Xjyc7bN02AuIsX0s0qDEnmWuYAcIgAAIgAAI3J4AlFhiCiWWUODgOQjwm6be6t2+Kaz3HIB/2Irm04DJJo6JvdXsp6HhAARAAARAAARAgAlAiaULAUosocDB0xAgd/wd1qfZSkJbgvg0gH/OEIp5hlWiyRRW4OtebiqGAxAAARAAARAAgRcnACX24hMI80EABEAABEAABEAABEAABF6QAJTYC04aTAYBEAABEAABEAABEAABEHhxAlBiLz6BMB8EQAAEQAAEQAAEQAAEQOAFCUCJ3WbSdH/59mMft+kCrYAACIDAHQn85EOJ/afm7jhgNA0CIAACIAACP0yAlJi+H8y/Mkyscu8Tc28ZM4tdbl3VCunnK+xiz6bmNzUVIzhzKkosvFjpTI3rs3lrkbW+B3dxM3UtTQnv4+I3N/l3Ni1u/+EFxfzeDhCn/WE12nuoxt2e3lb9NH9a74XjF9zdRck35zm/GWyOytd+sxvHuOn8I43/Rl+zF0BrXHMcLE/tiUAsc/mnvsAt3meSeGZeApDvmhENbm7U+XXc7Lbj9nDp7aN7jlxSkTf072xhEi3FGQiAAAiAAAi8DYHhz8fHn8+/n38+Pgo5xUJL01ireTHmM5eweHsltgTCrcrUmmpJy3WtpodOgiB6iEsa/4kyYn5bidlOffr+7uFi3XrfAQV/2uQiKeJnU2Lyiuzo8T/S+Kv7OnMBtMa1ZMrVnghkScWijJrnp3uZSQHIt81wVnVeXsfJwyWCStq8Qonx2+m377FTqAOLQxAAARAAARCYIzB8/mNRsaDEWHu5FJJeSYrRicuba1/zoMQWQPqxIirJXkOAJUp9JcaBzWGdRdrpuFld/LN+6uiOB+pYe4/8br1d09esPLimwWtHd1lfZy+A2XFda+Ml9SoDRJstDapX1S/pu1G2+4Lpa5VYo49FSR1BuKguCoEACIAACIDA6xGQ58RK3SULFp3Y4hiYSbG//7GjznhluWMSbtM0PZcSEz9GYxG6HEhdPR+goGNbLHRcDfQLtC4rCnEj31pwqUkqjIdTbjn+hn3mZ/sWW5VMsp4weG3ie+72p7QmL3fWr6V9aIGoxEKtYT2GFX5f+9U2x5vEnli9Zf7Faav1wNh9RbFrtZ/kYNwczZbtavPFJdURH1bH5qKqYt3axgrJ5Cb9FlaLyWTREI+66DHip1V8usxzu9q4fk/H1WioAkK2tBIYSj00nt1uG/vXRvGnIUtrl/U1TcpwtU8NmnzNF224I+x2eArjyf64BtWmsn8BzI9rZpZDxXxvzTEUSPt0YSSS9C3RvNj02gt9rYdxu9rLhc0t0j/5kkhJzQbzfM1eh6R/ildI2yvN1sPa/93tJ1lFuB4PziYn2ELFEEyz5Ydfh9VW2iz6pLH0NKFUblRIAHAAAiAAAiAAAi9IoKPEfAhMZNpnWsAoETHRZh/0x0suRvDUSoy9tK5q6OWa3JKK7CplL4cHzV5ypcTckjNylZKHHVrgxrsmuatK/fSuEku+Hh9YZ/1a2rQWiBaEWrFHcfoeoMQ2pGFanMkVbhhohV3WdlwdT6a1aLy1ADaxN+fLmo8ehq7AzO9XJebUY+FSu4vByB9Yv/nLpnSy/eS4ceWpVj7X9NVkyDKj0Rr1GOZCy/yY8TNT6UDFC2B+XDOzHCo2lFi8G6xA42LTNahqod6jcglZrdCXTLRl6XVTXiR0XdPPFiak7XTZtUEbdQTNRPrysI0aTLQTT7bTXWIPNbBe23ejqxhaVQkXmg0FuDHu2F9T0gWUmE49PkAABEAABN6LwDklRqKKlZbosb/TNIkGSwGznDFD5oliYuTEpLhHZfKsEstShYoVjbBrFTwITnEuFLllWqAoTKemmyqT6gTx70KFpAZ4bwp15VzfSYKEWto0WzP7eJg2KNZHt9G819rMmKKdZLnCLmZGGkvLGbfN3iS7nmw7e5w0Mmtwu+GIgUbGrMFTDlKxh6rpymnUsNXXhv1XeTJuzpdV5NtRZtDPgBwPasY00W4QEpyxBiVE9mWnLpYQuCqBWCzAnhmy1bqsL2twzVGXBCdZ2PD48zz9sPHJWh2yn0oOVYVg1GgXBtvfGdfMLOuwGxVnGEqWfVFIXfuK8PTkuHVrUpCIN54JGvjCmNiZa6MXhqIhV6JL8VGgLAWojis6tYEJqUbFpMR2dMN+HcbQiAKWjNR0SsUBCIAACIAACLwlgVkl9ukeDsuCS2JijgYlVHExl/9kqxOT52QekjeV/Z7gtEkueVHRGfK16JibDd5ImUJ+nhVg38saZBet0WnZhZ17HaBp4q8l6dVwGDWC0HL3lEhpAS1ZsyV38su8Wi+enY8CtFCatd/45IFS2zLivECUDBGrc88NKmH1GpeM3nDUp+awqg6RU50jNaCU33Uswo1WfWjPiY49Zu+Op5reL/fHc0O+sq+CYUGguQoumTn9sPFzU5mM9MsX86XSUjJUpT/L1mDjxppjaA3mayDffzplaZ2tvzDod4S08yf/eGHfFWJIw4xi7tzVe+7aIIUU1hraYLtKTCNmWolFV9lAV4klkSX6LZ2mTlmi+Zsk5eAABEAABEAABN6OQEeJse4K23JkuZWPlEaVUFN6opiYGqfqo4yPsdfScAPI9YnOUDlIbtCEFmeWKeSWWQH1YkXgRO+8bLg+F/8u+3T8eAU5bjdUYk33Ta1P7NjBjM9F1dZ+I0UorY7kVq52HMw8UoiAhy5WZPe6QUW6tqGsjg3x4Gr1fdnko9v0uTEVtVyO9TsTBmyKGQ2D0GQ6f5oa7g/5yr6KBquxNDz+PMCfNb7u3U1lNpKODE6+rzvjkhbSTRpb4bNGxTmGaqTe5uPq4N+mIBUHubzd14umx8smfvk0zCjmzl05NvzYYBZ+l8fELKLFawt5aWIlqL6nxKrmGlOBJBAAARAAARB4AwIdJVZt2UHSTONeOTom4y/PW1SeT4mJlez0ePeavZbssaWxkOsTnaGUpQdVU1WUjPw8p2UavZRtds4bLqd4W7dTYupCaoOnvX+eid3A0VPr2BmSm/5ldgdD2XTCXa0Om5Hgk3M5kh6TWtKgKrETKzTNOq7GnSxZpIZorwJeoEj7eYgLu86rEyXywHMhzqtvPD8Z1UCuRtq44urEPeWac+w28Egjk4NaTki6dLc60GCd4u4P+cq+QoPZ4GJ1YufK/2HjZ6Zy5gIQvlq3vKP7s2zzJhXTfUbJMwz5AtiWvVhb+rvAKIHndD+pcCou7NhIw4yZq/fcddh6TkyNFEFVrDzkPBNgHNraHdOgQsXwGJisTkwiqxMT6zwnVraPcxAAARAAARB4CwI9JaaPg+nTYIXYCkGwcCJMuLgJN056ViVGPorzdM17Tl5RmmNyfaIzlLL0gB2yULFMIT9PC5RZZWPt8+aP2+IVziixmVre9CIwp75qXlZFv6iL9Y0s2hajbfP3UpPtxUDU9QAAIABJREFUPEpxlC2MKR5wNFBgNAw029VvbtVqZtmkz/notpuiiznopRJDItJpuIp6YsYUo9+DITn9TeMt3GdRVjZG+mqB0nFJVoormsuelFjir80+3ni7RP1PAZbGG7q0aMxdAFy5M67+LDcZCrcZhqqO3IUxhP0znZ3ud5lGLfvyOWtGpGFX77nrkPRWUkjhjtWnudL2ie4LjkXauKX9OZzx6WGwVCU9UbZIifUCdKLbfE/BTpyAAAiAAAiAwGsSGHj3Q/+Pe+KLRJb+SRt0yDBFa0meq6AMnlmJFU5JlGFsf/DSzPUkn8mO40wXDbLX5Vw057o4JZaCM85zciVjD+ksWGY176TEaEGePSS2XW1kc3w1ccYfTLbe6EC9UpkmQ60CY78b0wbxw9ov/Tr5PbuHrc8iPZNH1t2cf1wd937nxr6PzgOlXf0dLSdL82sFLhIzSRaGq6IAH98sQPvd6Q775vorqIZiWajEckRRLrdwC+h0BAtl2s3OkGWJymGh8XoddfrqTeX8BUBtWqQ0jKs/y4XxUsvd5vkBwqBm7Yq1m5XH7r5zkugKYNObEviqljcWzEylCen8aony6qXxtq8NxdsJbAmoHW+t4fZO1EomuhqBLy/DLlJi/YfEZH/GoY6+qTX4AAEQAAEQAIFXJCAxsbtb/qwxsbsPvN0BSyrnkOmjLO6n5Xa9p0gt3VXVh+YPPoWNr26ELbYsoIoeKBKfbqwvbfwtaUrIS34qoXZVzoUb/5b9factjnD99BdQLyDGA5PwHJTYd2YZdUEABEAABJ6OAJTYT0xJpcT4t/Nn97CVlCgxC7vYr/3Z3/wJoO/Tp6dbuezPrsRe2vjbX0Nu8aG7XZ71NucHtNprFG+PptXizONqvK9lCq61KiMNBEAABEAABF6SAJTYD01b6aU9q3/WwlPssV2uM2tVQdpCAiZmmk/evYoSe0njF07QRcVoTSC9nVz/jlt+b9tFTTyyMGmhnwo6UVAurGZNA7eXTLdzUzEcgAAIgAAIgMALEoASe8FJg8kgAAIgAAIgAAIgAAIgAAIvTgBK7MUnEOaDAAiAAAiAAAiAAAiAAAi8IAEosRecNJgMAiAAAiAAAiAAAiAAAiDw4gSgxG4zgZ1dtm/TOFoBARAAgbsTeM7nxO4+bHQAAiAAAiAAAj9GgJSYvhyseGXYpC93rl4a5t4yZm8b+/j4qGv7Mb3MLva8q+EVmzmLEqs2u/MMvn+s+8XHdw99v9nHtHB2twl6N9TYedlU08TwsqZv790YWrMtFmivhXtsFFDs/K+nw4UXnryN6uzloJunp30j+OBsLUb+td/QS9s2/rXdjwT1jb5Oe/cGrfA+5WmaWuNqXmNFotoTgRRlFpzqa8TidC+azQDku2ZES++yd6K8kHnRLSSvJ1tUNBqOMxAAARAAARB4XQLDn4+PP59/P/9UWooFl+or1mr1G5x12FSymyll3l6JPeQKeGMlll5xmzeai35qA/BtvdLQ2r2VmO2cqdLdTs8OOVJY5Lun11hdo8TEsOjxPxLU1X3ZFpT5cgq/krTGFdm2z9SeCKRddDZVzfOyY5lJAci3zXA23ul9YhcoMRLIm+3Pbd7oYOAQBEAABEAABB5FYPj8x6JiIarF2sul9NVWWbJpOZRYE8uFiW+rxMxvHjdHib5QQGNzXIZnmQu7rC0qpc6u95KXV15YkmweaX9z7oWGv6V4YFAL55taqMS0oWvGNcv2mgbPD6pd4rK+ipDjNJ2Om9XBBfZmx9W24LaplQFyCyy9AKrq37TubhLoMiU2TXcShN/Eg+ogAAIgAAIgcC8C8pxYpabKBFmR2Ap8tSQa1w5hsudSYuLHaNxDl2mpq+eDIXRsi7iOq4F+gc6hmxy+8K0F951WhY2HU245/oZt8qPzs31jxqMSs3bNxCks71uJpql8Un5HKnU5Hho9fC9ptR6Ykm9Flsat9pOtTjzuV/KGpe1q88Ul1cbe2rximVlYKUf1215pt5Zgp+k7rmQxZOH+9pz+0zG/GyqtduPCq81hpIjTdrXXNuXtcDb2r005ZLJ53BxWfIHRRbU6bJwS6xo/TSGrWGfYtDBNRmtclYVrfa+dXVz54iz6aklWaS3qyTw7VV/pAmATLzeeTIhLEO3ayFeUU1/Si8xU5zafuTYCkHAjV+MyhtLhfsfXhu+RviXkmyS9RTCchr7WQ+MtZJlqmt7QgrWfvhumWbykf4p3OvNaxd3msB3W62G72x9349q/Wvlrf5CU9bBejzsvc0MWVXfvCTsdd+OWqnAt/d0ljWEmLCZrFwsjfUUcgwAIgAAIgMArEugoMa+vRJV9NhYw6iNmlUB7aiXGXlrWUcWk9XLF9VmrWmBXKXs53AY7ZJUSI/9VE8lVSk5/aIEb75qULVQHkztWg9KbYtULZn9Z3Wdpsfyx3TeSm77J0YYkVgsLea4NA7VwGkrLiFqvlmJPqgfneJqpZd62eK4BlfSvfnCYSguUlf50K53L8ER3h8xdjJvjZlzLv6s9T4tcHmeN95OcgKvZlYUJamtcLQuZZKM1ajlMbqPBci60fb4SW31Zg43umvxjYh+U62tLr5lOgqzRkRvXzLURKoaLzfWV4FuBhoX6haC19AtBbkqrFfqSNi1LZ7PkTL+v0O8gWQTKqc5Xo0FPkjbq2HotxTKbNRhLJhFOKp8O9PMJ1SiyrIFGlikxe0Wzq1u/R1ok4D5dtnoAJVYSwTkIgAAIgMBbEDinxEhUsdISPfY3DrqZGIvI2RPFxMiJST9FV7ayS9QQRez65HQqVjTCrpX3b0R7OBeK3DItUBSm0yTSKptSgvhra3XbwzDMNdtzmOlkp+SB+mNbe3e+M/UUo9PfC1uphex3Zp3InbBHSBCswe2GbdTIGCEVA80pT6OlAx2xrVr82rC7Gc2I4ztbS5zjcTvmlYFOIbdCPc7N1UBj9nrVx93tM3KxmSa6O2SuNW6+eN7FklRrZsiaNWi8U51v8bbNpMrCxDOZmlKyhXRNOdoSq6yuHVeRDlsNmhk+2qm3QJdGVhEXGT8Diq3bhGDUmG/e/rjOXhvFzcRAbFwNhpJlXxRyodpXhKcnx+2bUocZNHDLjEj+kmujuTRRVdPueOIFg6TUvg4UFtsdJzlYbzdHnuavw4pVGRHWrPVKsv7PUMqSMctxqmWn6WLTy4uaQOxLYeADBEAABEDg3QnMKrFPtxVHS3T5yNk8qCdSYsk/LqUUj4D9nuC0ycDIi4rOUDlg9rrMzeLMMsUpMfFirUF20Rqdll2YJy7yyFdQty79Jq8H0oH3B/1x2fy3z9mRJb9TPNq8njPLEvNK6Wd1WSN5mlNi0Xl1KytTkMOEnFO82qCbi9yX9RtkbBy4d5E1J4JP6nR1VDVCU8GmkjMthWeHzF1kUFmy7vZzxpc0xPnmSe5bmAbXGJfeC2lSCm++xTY111ZiCkREhfRoAqO89PKkXGd8ScNdUdlIv3wxDbM7Lr1um98M0qZ06i+2WYbWYF7kaTSS7k0Ld/3vCyfasjLczfZd0TWjmLsLrg1SYiOHujK3SZQYX9g7Wkl4+FKVtTvKw1wkyeyPxMGojMi2nOWUmIm0Ipjmv8a4PS5XpVpX+AQBEAABEACBtyLQUWKsu8J2irXqammzHptnUmJio/iFfj0Pp7NT2HADyAOLzlA5VG7Qef8acHAp5JbZqbrF5mw1eizbzxGi1YpFjF+lVzRnWkEtzh5x5b02erk+SfpZHckLXO049kgL8CTcd94RryHosAzaQiU2X0udY9dmMeC6uoXmsj+dtLAN+QolxpNDEyIKgV3n3b7uXQzODxxmyy/wtjshrGJSpMHzikWI1aZSusgq0irOPMoo+nLC6SolVveeQBUTmqYvX2ANQUWVzl4bqpMXKzE1Um/zcXXYu58QBMgg94v7etF0u4nlqotfPg37i7lz8M/hnYmJETEWV16JpXBZ4pyUWJV1pRJDTCyxxQEIgAAIgMB7E+goMXnHmNs7kWRXfB6MpNmZt4hldM+nxMQ2dnqya6t+ZPbY0gjI9YnOUMrSg6opcT1d4+Tn6SkVbvRStlmcq0uVf0W35vKP/LI6sahny79WG5JwztGuyuWEpjt4zmZ2EHnzidWeHfGR9JjUkga18xMrtJjFjyHpUiUKZdDeieJx0sNU7MGaTxnQ1V7pbK2uv25jr11842dmWMkkb9hhpZFSxEOMpInuDpltKC4ndp23G13l2ByyjkueDUwTJO2YIy6gnIXpsDWuYGEeZlowlnpMrbiDVoOULYRXtB+JX3Mb+ooXwFXGz8zycTXuZBEs2UObVZAWchd+Z1xnr40LlZjMaTHRmaAApIWy+WlSk7JmrYGKjYj9QRAKQ3+vpef6zuElIWWPeZl152NibnUib+ax5ruAAmi0HJEuIXm2q7M60ToqP7lj961Z5uMcBEAABEAABN6JQE+J6Wud/fvEnC7rbdWhZCSi5oXbsyox8lHyeiEyn72W2hEg1yc6Q+VVwI5mqFimkJ+nBcqssrH2eVZiyV9L1oufG6M2zhrxMcnjC+5bu5+rU00pSSfWp3jALQOTLamiBQkrkeZGprVaDar/2sqyvs56202BoYnOPLkeJH1WiTnLDT/bUFxOfOGRkTPGi0sdG7TLsmehCcJmLekrSRRpP53mq8ziM8HmJii6dlTnRPEzNy575KzCm67EVl99UNkAN2p3N6QoWTGu/rXR6itcbAmaZ9iYr7TrZgTlf+No1LIvn7NmuPESTJ2v/rUhgHt7J2Zx5WNiTmK5vTdUykkQzKXn58R0xWNcnehnhYxpBuj4mkrPoqWLAgcgAAIgAAIg8PIEho/yjxNQHPaS/CDDokyrGTyzEiuckijDeChBFZjr2VdiRYPs2znt4TwN8vPSae0spqwaqKZ4JeYcXosQ0cMl5lqyR+ZbtFFZ4W4n38pQJ1KoGhlhyHvsy/715CMWK7Wm6Wu/kuBAmUsVbVijc2RnvFIKhHRquUVxnZGq2R4elzwddNd7M4bGJYWXKbFs/KwSmzN+Shvir8fVcV9sVtm08FtKLAeUxMW320GBxGBO5mlTExhaosqtTEPqdYzXRjuT0pvlk9+0fdhWF1tnXLdWYk2FmX48sd99nGTS0dr7Ffg2kVcg6E3EM17ILROBdAdJ1vJrI3Uoe3HoKQd7ae9EvrCr58So1Nd+lzZX3I47F4r9Oqx0n/rt6nikdzXb3oncbN77XqNnuU9qlnYFaX5H6Z6M+RG0UA8nIAACIAACIPCaBCQmdnfbnzUmdveBtztgWRREIKc0PZB2Cxemnvb6xit749KF9VH8GgKiPcxRvqaFl6xjC+qKgf8+GvJriwVjkyQON/6zzDA/DXa/L6Blw+wFxLi27PgBJbYMJUqBAAiAAAi8CAEosZ+YqEqJ8U/+hed6G8P8Uqe7dHAbM9+ylV+nPSSmJDHDSm/8OhpulaaPYj3rXcgPaP3kVhmtx9Xy9wLHxH7SvGwKjkAABEAABEDgZgSgxG6G8rKGytWJ9/LPTIlt0zugL7MTpa8n8Ou0hykxeplyhe3X0eDFeKsxr8gdxie/C0nt/FTQiYJyYTVruoB0Q8ZObiqGAxAAARAAARB4QQJQYi84aTAZBEAABEAABEAABEAABEDgxQlAib34BMJ8EAABEAABEAABEAABEACBFyQAJfaCkwaTQQAEQAAEQAAEQAAEQAAEXpwAlNiLTyDMBwEQAAEQAAEQAAEQAAEQeEECpMTk9V8fxSvDJn1rmLxPzL1ljEapVZp5LQrYxb5FBWkgAAIgAAIgAAIgAAIgAAK/lMDw5+Pjz+ffzz8fpRLj1zqrOmPhlcQYnyXd5st1IUKJddEgAwRAAARAAARAAARAAARA4PcRGD7/sRBX0lZEIaotCY+pFCuzyvMWRCixFhWkgQAIgAAIgAAIgAAIgAAI/FIC8pxYJabKBA58fagUo5MUIAsiTSFybV9kghL7pdcXhg0CIAACIAACIAACIAACINAi0FFiXmyJKvt0Cxid0uJDJ8u4D5evfUKJteAjDQRAAARAAARAAARAAARA4JcSOKfESFSx0GJ15RYwitr6qB4va3OEEmtzQSoIgAAIgAAIgAAIgAAIgMCvJDCrxD7dMkSvxPhYAmFh2WKfIJRYnw1yQAAEQAAEQAAEQAAEQAAEfh2BjhLTiJeLgeX1il6TES8WY65kiyGUWIsK0kAABEAABEAABEAABEAABH4pgY4Sq/ZOJPmlj4NlTSbMXISsCxFKrIsGGSAAAiAAAiAAAiAAAiAAAr+PQE+JxVBXCIPxSX77GIfE4p4dUsKnQYn9vksLIwYBEAABEAABEAABEAABEOgSGD7KP05AsciS/Lj6UKSW1Yx59jIyC6Fx11Bi3RlABgiAAAiAAAiAAAiAAAiAwO8jIDGxu48bSuzuiNEBCIAACIAACIAACIAACIDA6xCAEnuduYKlIAACIAACIAACIAACIAAC70IASuxdZhLjAAEQAAEQAAEQAAEQAAEQeB0CUGKvM1ewFARAAARAAARAAARAAARA4F0IQIm9y0xiHCAAAiDQIPDvabrt30YfSAIBEAABEAABELiCAJTYFdBQBQRAAARehcBtZdi/X2XYsBMEQAAEQAAEnp/AL1Vip8M4rIdht3/+GXqAhafDdlivh93xor6uq3VRFyg8R2C/q+fsukm5rtacbbfLI9u2h9PtGvx9Lf17Ov2Lvu/Gf52m/9mM62H4r81pgTzr1vp9CDHiJyVw3A1r/Df+pJMDs0AABJYRICWmbwerXgs2ufeJubeMUcP+hWJ1vbrrZ9vFXpTYeJGD90U+zOoytVKTWJZyOm5W2/Ey+5a13Coljvh4+GpldtOuq9Vt7rqM02YchlVHUHPmMIybn/Lj96uh/NOztRj+7LioLNPfbsopu25S6lqSQvo8/r30IimGdcUpWfKySixg/LFR/Hua/nsVlNj/2y9ar9irdcU0TtNqmMZNWXM1THRHnKZxmAb3d+Etu3JVhmEqa8Vm9VsiJjZqlTbS+WYM5iVTN3u2fBXr7KkwDbbqy9/++1XZZs0ntjtN3PLguqNGxuk0TacNtea/CYss37hwS4X96EqGpQWLzr+Om912fMgF/7XZriHGFs0KCoEACDwpgeHPx8efz7+ffz4+CkXFMkzTWHglMeZzWK2lnO4gn02JdQ2dyXikEtvvBvKcLlKKM6a/b9acYqG81WYz/qAUE/BkyIVycG5c0zTRL8Hrx/wq8HUY17Xie9wVBSX2bdamxFb/PU3/3q/Ww3CJEmvUusqizXhGiSWVIqJiiSTw6k6ETVIX0kiQHyJgWB1d0Zfdy6p8EoPaWhI2rI5EiRV9pVMy2Gmq1ODcgWi8MWvOQm6l4U/TVGSpSZShClAKkyoTa7njzRjk3Jwx/Tz+fnrYDygsxi5c0dG3HTkgAAIg8GACw+c/FuIKSoy1l0sh9aWCiw5dTlmyOQAosSaWbuJbKjGSsmMVxekyWJQxo1hU/1whgxb1fEGhK0yYGdc0PdTzgBK7YKY7RR/rmFZG/HuSRYkNTTW/RpGXMjZqVT0sSWgoMRZFpLiiOipP+617JSYCQ3UON+hlWG7j2r6kBdJdTrdIIomZpKlY53gzkvTS2JpVv1qJbTZZ0xZyq6nE9isqv7KI2X41SSiPCrO1S0RvBrjg6NEX/AN/mVowehQBARAAgYsIyHNilZoqEzgMJlKMskIQrErQtYu+0BMpsSOt09G/YYH5abOlKJQ+QrYehq3+B5VTUkU68P/Btpnzz89cbr/j59KCEDntdyM9s0F/x9VRVtCREdm+1F8wtN3ZdanyX6asQAu/KpK3Px6+8vIqv9SkW+uMEUKyiuU4zSSL+XIAqVQktN6PwXNGufTPL1TURmnZToxI7VccoMorB/NEzmRJO6lDq8NmZHNp/Jxk+QyktEALjZsTl+VGrY2ckvqiA98e0W9EqbqT8r2p7CixfGFUTxjS82u3W9MYYmJkzDqMvjVqti0S4orVhXfmck3ZvACKboeUIlFJ+dU/oFivx+1u7wpSFTHS30HTcRUGIqf5Nj8ddyOtuqK/406/HHLvlx3Ny60rci/rXktTpCjJFUm7mxKTOJWXJdnkOygxHxZL0oh6LPpycSqNWRVAspWdIxZO+9M0ejnHx/WQkyWixPYrXgg6TatxOiXyXjd2+rwkubgX7Htgt5efj9a9m4h/XFrv9l+HlVz2253/ze7s7dD7cUrajd8Fl4wHZUEABEDg/gQ6SsyFwERX/efTFjCWIk3z/zpbuUiQa0+kxNROljzZ82HnWESQJpKMCssDL1+daErMiz8VcA3FxX5iI52EWTDUkb7VYf0fmfwXlraEIE8xeKLUc11rgT0CIwzI1IeqET5V6eGPqfGkxLSnMj8ZQBmuPRM62kQWN6EBU2fSeZFVNGGnVMeOzUJ/nmVXsk2TshE8rFAp9O0rThMJneDUx+x6Ur43lU0ldty5iyFcG+yK2eyyArla/8i4qEEZrsgw/3sBtW99ibbR3GASzfk8s0iwcVZJKVGbMrSG91nMT1V9mlVijQb9qBv2zSddobXmq8x318nNIaC9hZVYD5BeioolSYhOSznZx8TymsAoeHJpObq2L63diolpsGtVDqQYVy7GbWUgpYn9c1FiPED5kkqszioxCn+t6HEyChUmJZYegTNp1+97SU7j0qVfE/gmLe8C/V7im8i+o/inB6ffqM9Gm/XtwIXSd0EyVdqFEktAcAACIPCEBM4psRTwygKMj1LAS1SXX67YGuXLKDGLg7H3FhXQtUpsHLey0YcIM16fJ3Jku5Efz092mnaWuHh1YlvBLXaC+T+s8N8bpziHklzPUOBaJcb1KBaYUbPscELEyRB3yNfVUiVG9VKLUSyx3MoxJl9yJite1d6MuvXcuNTyXWg7PK5k4AUK86z8vfVUNpVYQSNfG0XvdOo0W6y27IxcrO3hVMswJuEb985YlF4kzBbfC02zqAUXi5PT2vGbJrEz60NurfRBKUzWb9CyjhxZ+7LTIs7WNLOdOC+rrshtd3MmNQkPOpDdNUxXiDBI22As3EVj4l1Aci0XX/LxNzqWjT1EbLAIybXqfT5mx0GCpylaeCxjEfeLqs+HzvgnITPM9h0pvzhqSxIxllXayLmYWFoXuhmn1YqfMXNKjH8XypbcZKVi44Kvrnm5U/S/GP7eWNNPTPxf4lEiY3zP2vV/5nZY8D1V40QKCIAACDwBgVkl9pkfDouRL1ms+EF/ZLuPJMw6Q3oZJeacK1JD7nS6Vol5zaF4zq53vFiJdbgvTS4c6IbKWqzECk3YezDM4oVkIcsS74VkcVNmeQnUrCojLqrl9th3iYv9HKOydZclYsmvGEwG+86aLVABp7padpf1fJvBikp/xNxWoLKc3MVTyU13PBxqxP+AbSrdy6GbbCzCDXJf1oWNWFy0aEaSQOznqfoiv9DfydbAJZ9ihgo/djSdCPyineI8jaK7hmNq/qXqKzllI8VDDa3RGL+hJK/QWvNVLgGXyiYNsxqnjayUS7oiKpbwxFeq3zpIMbGs7riYj49JvRQ7KuNUbEO6l1udhLQ0ipDKJyL5gpKpVJ9fMJmkad1UNyURYxW6d9E/kXll+yzSkhLzxuuulb4nszYMwRdYfNy44Kmuv4n8sX5ruTXX8vVCt9jS28Hf8IvtREEQAAEQeAICHSVWR7r8esVoN+W4HTxipp79aiVW+1DvrMSa8x8TWdOWMTHvDGXlVCqSZYqFa3nVRMemhcomnG39LMpxD2vFgtlIfdDMNUmHlG+9a1auIgmxwYY4TU2Wuipl6EGdX6Z8X4mxn5S1jW8wCyfWEvW1X9p77pwa3B5OpfjRn9j77edR73ffjcuRjeIR8k/4PPy04ok7KoVThkN1G47pr1Vip2lc8UYR8q+LU/lvAB/UmrlCkhLT+JiFxUSYNWVJqcRkeZ5VnOlLsryYKQo3sgqFGSt8U4nJOsOkMJcoMd9/Q4lxdth9xFe45LhxwXP1fBO5nx4oR26idE/xcmJZD3+JEsv1LzEWZUEABEDgZwl0lFgMgenuiu3A1xIhNv1mJdaKCtlyxPLRfrsYJCYWQnKW1f4sIlG660ffTy1ayW6rZZQp3tvulbH02c/ec2LOD3MyxR1Sq8VpI6FZSgJaKoZK0eOs7WZRhhNi1eNqWnG/8oVSw2T1zZTYuWeeyomro2SXTSV5QoWHw16Ui1C5Bqn3xVddAjR3oErMflB3jdcjje2QO7jb0zrAqItiqeVnJsDi8NVTVESno+wpEntsOKbiiQorHghpOaklWduNLMdabl+35HyA64rcbk9zGSJU9hvbN2KY9vGBMfcNwO/vWqCOvBIT9aXxnCrSlRTL2ygxGghHF3W1JA/Zh7OSmk0xMT89PSWWavnClx7LBd+67/gmWq8O9BqOEFWmjTqKm0jujmW3A/8CFO+6S41GeRAAARD4GQI9JTbJa5011pUfEotWxkfGUp5E1Lxwewcl9n/u94V7Z7gHwxIbPWgpJ/f/SBk0c1llSzc5r53aMsV526nHskzK6B3M7J2YJQyrrSRcnPbiw6iIdM2g9+Ha6w9do125JY0VbclQXHXtMgizlJZH4RFQ7TQg16DrqjKq1H6uPXJzCm3kcutJKVMum8qGEuMG7RlCca3sGcKyL2eYHppjtfSxp6TEaGJ5SWQSY+x9zQg/VTtmW7DlUjOoMvuX43Yb1wpaLyEsJjcs0wjpyd1sZultLuMKiz+jU3uh8ee1ln1T/c+06I3P100lS4X0DJis5dPdFIvYUSUqwtS5E6/ERGKlneuDMKMb1J7vurYv6bYR+DJ7GllFX1ZSPsmkBWozVGIyKdZHEiu9u0yemksNOoZN0SWJJxPG0osE1rycq55oDOb0TspAlvv/S0VauhGkidbtYN8wZ28Hi6m5H4fMML0501dN484vAAAQiklEQVSGpeMTBEAABJ6HwMAPe/l/nIByj4P55Ye6dFGeEqPXkZV/nlmJlRqH95DnDXNZHLn/MsrnxPj73radv2AX+1ZMjIidNrq1vW1b7/qeJtrjPm9nH7JK3N84b/0nJ05+6VJ7971fa9YUWpTYhGESy9YTOoVicTDO0m3fY7bEyXxVEjGF8NHgGadWoicbPZPlbGyaEbSatchyykyTTzWei7uBNHp2PRayj92L0u3oT8r3prKhxGypHmsMfdVBMid7WvYEV8piLOZzxVQjVn/SuMwns1VMWX2Vo46tcm5btF5qRrA928PJx509JLZdHWQbbrlhrZMgxsyeL92WYFhvV8cjb5Sfb/PTIbUpGHOW+Z3V2wNqdppyXomdNv/F30IL3/is7drwIvSuGaLEbLsLcfq9EvO7aCSx0W2NM4ISE7llb83ib468EcUw2Du4WB1d0ZdY0pBbZmIj66wSs706xJ4kI63J6jMqMXmgzu8gQmsL7W8SVD0lJt2JZE21KvIXzrKaTPvO58veX73N9ixRq2yLNzfM3w76fdSUW/GHooonEkAABEDg5wlITOzudjxfTOzuQ0YHiwmUsmRxxScqSGOo5N/d7GO50/Q87tbloob5t3C36KjpI0loyb+ca1HbVxSKKq5o4HFmFB3f4vQi488rsWn6b3rN4viv0yUxMYsSPmIqbwENbVxH4KKL7UwXtnzXfo/Q4qLEisQzTaVsrtz7OUDCc73c1AYOQAAEQODHCECJ/Rh6dGwEXl+JUUjrcTqMuM2EewzrD3xWSqw2U3wu/yP5vewkB7Lr2z3OjDsM70LjzysxiYmt9udL8vJFHdKFZtwBBJq8P4FbzbJGpyyQHg2XTrp3aywcz6jdIkjtCnCvV7XrGsEhCIAACNyTAJTYPemi7UUEXliJ2frDx8owoUpOxvP91ss/oLtnnJwXxLJszm1adLWcL2Q+n+vaV3qUGb7Pmx1fY/ysvjr9i1dB/9fmNFssxMps+5QZD/g2A5YFjbbcLq2gk4NqHd33+nxkXzOWPokZbOE1F1t3aOmuXDW2orlaidHXTftnHTW+k9s1ExkgAAIg8GgCUGKPJo7+QAAEQOCBBJZLrIUlH2g7ugIBEAABEACBtyYAJfbW04vBgQAIgAAIgAAIgAAIgAAIPCUBKLGnnBYYBQIgAAIgAAIgAAIgAAIg8NYEoMTeenoxOBAAARAAARAAARAAARAAgackQEpM3w/mXxlmtnaz3KvG3AvIrFr1+Q672J+Om9V2HA+nanQvkMCb2j3htucvgA4mggAIgAAIgAAIgAAIgMAdCAx/Pj7+fP79/PPxUSgxFmHtLJZhWlyLtV7w7Mx9ByVGb3peD1BiblpxCAIgAAIgAAIgAAIgAAIgcB2B4ZM0FMupoMT+/udDYl11VplCuuxcXAxK7LrpuVktxMRuhhINgQAIgAAIgAAIgAAIgMANCMhzYqW4cg1XWWWCrFMMUoyLBHX2PEpsv1oPw3q1n6b9jl+ksx43X2m8p/1uHKnAMKzH1VEWIp42W0mJ/8pbTI4rKrzd6JpFOdUXnPT7+tpQL7v96bDS7lILyZbWwXHHr/A5rvj9mMN6HRYc+lc52Yum7K0qa/eKp3XxCparX+bSMhFpIAACIAACIAACIAACIAAC5wlcrsR8CExU2We5tvEVlJhIJhVdJMymqaG4WOg00kl9LVdidV+ixLR3FXhL1j2a1hIBxirLXmsZXnHJUs3EGI1tNiYGJXb+RkEJEAABEAABEAABEAABELgpgW8oMdJbHAoTPfZ3zq5ni4mN43ZgNSNhKw6LWXRrzyGyk52mDTraz4kVxeQ0xMRafSUlttufpul04OjcgrAYK7EcByN9teWQHomp8eCCe4dtCHzNKrG5mUMeCIAACIAACIAACIAACIDAHQhcq8Q+3cNhL6jE3HpCg6pyKMapZB2jFLlWiTX6mkSJJelVyDkzqf4MgS+fndcrulWIFi47FxPzDeEYBEAABEAABEAABEAABEDgAQQuV2Ky9NDvtOjXK3ZMfraYmATEgrH3U2I5hpU6vIsSa/STOzyMxUNlKQsHIAACIAACIAACIAACIAACDydwuRKrNlpMqxRnjH82JeZ36TCzLTAlqxMtNX9KTEwfD0vJUou3ANFIV3qEbHJLH1N5Obi5EuNHvfyDYWWHUGIFEZyCAAiAAAiAAAiAAAiAwE8SuEKJTRNvl+jfJxY2wLdXRfvtFF9BibV27PC6qwyaydq/9MSXX9YYnxNzezPaVN9ciU2yR2I/LFbt4WGmTNOkSxv7lV1ZHIIACIAACIAACIAACIAACNyAwPBR/lEBJZvTx0ynrVx2IcPs9WRPvYt9KyZGNE8b3dreNqx3j1pNE+1xzxvcc65lnY5pJ/rV/qjb0/PUPDAmxsbTLh1ut/oiRMabdlgBM14uof2OqxUVJA//ggAIgAAIgAAIgAAIgAAI3J6AxMRu327R4vPExArDcMoERKVBieFyAAEQAAEQAAEQAAEQAIEHEYASexDop+6GY2KyHf5T2wnjQAAEQAAEQAAEQAAEQOBdCECJvctMXjcOebwsvHrsuoZQCwRAAARAAARAAARAAARA4AICUGIXwEJREAABEAABEAABEAABEAABELgJASixm2BEIyAAAiAAAiAAAiAAAiAAAiBwAQEosQtgoSgIgAAIgAAIgAAIgAAIgAAI3ITAcygx3UV9HfdWv8kA0QgIgAAIgAAIgAAIgAAIgAAIPB0BUmL/fP6h94bV7wW7Nqse5aJd7EmPbQ+nujZSQAAEQAAEQAAEQAAEQAAEQOCtCAx/Pj7+fP4lLVYoMdZnF2d14CxSYhO91eoJ91L/OmzX28NXZ2g3TD7u1uv4Ti/qmlLo0/2pC2nmWTNdQ7GRS4bhGslGne36kh5epCxNmJux4vTcIAjjLLXLOVc1Zts3A6XW9deDtYNPEAABEAABEAABEACBCwgMn/9YVCwosb//+fhzeVa3YyixGk3tiM8rseQpU7HkYUfv/+twONY91Sl1T3WZBSk3amZBT98oUnP+RmOxKsNPUkzO0szEoo2z5YZdyvnC8lBijdlBEgiAAAiAAAiAAAjcm4A8J8bxr6DEUr/XZMlyR1Fy0hCUWAKaDmpHnFKS3uJyX4cte/Yx57gzJVa3kZqfPbjQVe+1daNmes3fJv1aRgt6P+7Wu91O5+y42x4OaWYW1F5u2KWcLy2/wFgUAQEQAAEQAAEQAAEQuDGBF1ZizpHN0mQGD7mn8ieHLaiN3THl5IxpmlIqVQo57U58ea+ncro1Qr2WfygvjcgEGNnAlcRO6TeVkkWL1mhplO/Em8PlyKYisV1eO7YxFJ01mvHcUmlSLEp5d5SOJE+at9ajTTk1tSMj3h3T3LiclJYXDPohGW/fryEzytPC9q3XZD2hJCH2VbRknQbUeVzxusrp1r7Zx0MLbailzfb10g3lk6VSI3fgEIUKqetwQKUzwNxKKIQTEAABEAABEAABEACBRQTuosTqnpfFxKavzXY9LnwiKzu95MKecyN9GTpWL1IcUT1x6cH3zf5nPTBL6ZXp9EvVGlV0TGwVG2WD5BTzu814ET3NkXN5ywknYrA3y2xJDH157VgI0YmyajcTLco86YhqSmsixrghbV4s5RM12huY2xFoScA4e74OWxsuz50z05USq7Pg0nOjnPVNNd6mPdSyyELSmVTHWvJDkYf8GuPyhjXbT+b6XE7sti9V2uVt7ijX8aEqVYXUdXGgQ64QFsVwCgIgAAIgAAIgAAIgcJbAcykxMvd02A7rc3osO7H5aG6s5iFLmVwnO5aUk0rlApQcz9rdUJnSvfUtcq3YUDzjAmrAcbfd7XhZIgeTSrc3e9I9B5qaTsKk5WgXFfvlKSc3VVSrHfhEMI7X6tmQ7ZPROkNT9XQQ21EllmpYu1wq/9OtnYrEAbvynfG6Eu6CsFZ4vnb0C4KmWIb1Z3ZSetZA7qzdvlWvOPfatwrWn52bXXoee6PEqkKqWR3kvvNRVQgJIAACIAACIAACIAACZwk8lxI7rs5qMB1Rdh3zUX+w5DMWf3LUI/n1UYnlZKqd/eduL7mTVDgnpd5TXkvgyVg4vCJBnqYSyzWpfG4wW1YyITvyeGrPu1++qpk7qZthw9JI5YDNs/apNUqwTz5whvlyrXaS1AlW8Ak16f44KqkzV4nScr9OmcQMq1E0Tv1QB6leOtDqNg5fn7qLrdOZ2Nlp36pXQqnXvlUo84uOk7lWvuogZdQH0WrHuS6KFBAAARAAARAAARAAgRkCT6XELtrFPruTld9ZjTd7j0UWZTQ88lg+nhUt1KdUXBudrdnIpKTdQRbakQg7mHmckXZFzDVp6A1nuCRSnpeed5mfz2PH5WBzOcnJhsWSVs7y7bNQCCG5MawyOJg7oQ5yhXxpUInUai5e9OvKU+F8QViNVhMiRHOnXFar23itvp3HdvJZPrIa8dPqW+ql5/3xaotlg9ZR9akD7GCtiiMBBEAABEAABEAABECgS+AuSuwxeyc699W50u2RUtmGh931UMkzVSebDtNJu/Ui1bm1vX65hutEW+DiZqjvmDKSQPD1pEbKsl3sua6l+vLaESVZNiV1y4eOtXL+KJthnqFhKWvlqDXCap+Rv5VSN7/RThlVSpZQVRNFdJxOqITP1BqMTQDwYSpPZx5MXT716VazpjQbGNtg7bj+i8Nkp7MnteUOqJq1xsm99rVOVT4Oq75dqgquc3dow2vLW1cQhyAAAiAAAiAAAiAAAmcJDB/lH918/u9/ygx6BTS9fGyayZL+HqPEzo4tFmBnN61fU7e976Gm4nFHvNhmPmPX2Fo3TcDZqSHODVkigKSWZHAzzjZz1WMjwSkX9aNdu+adRTk1tkOVUl6zfJRKebh6RHWiMeKjqzWpeStH3VOH9hlsL5qKppqZlFr2SMa40o295BtjyxV4V8dz7YcebFy1oqFWtalGn8HQ8rrKBoVpYdLGT7GntGrWYyNmpxifsWW7q/Jmve8JxyAAAiAAAiAAAiAAAvcgIDGxe7Qc2ly2d+JFqxND+zh5TQKkBLJCeM0xwGoQAAEQAAEQAAEQAAEQuILA45TY/7o/bUP3u/Ww3u3bmUh9RwJQYu84qxgTCIAACIAACIAACIDAAgIPUmJnLGENth7W283XmZLIfisCUGJvNZ0YDAiAAAiAAAiAAAiAwHICz6HEltuLkiAAAiAAAiAAAiAAAiAAAiDw+gSgxF5/DjECEAABEAABEAABEAABEACBVyMAJfZqMwZ7QQAEQAAEQAAEQAAEQAAEXp8AlNjrzyFGAAIgAAIgAAIgAAIgAAIg8GoESInJ678+/vO3Nr6X5V8p1qpXt4QUEAABEAABEAABEAABEAABEAABJTD8oRc2//3881EqMRZhzSySYUl+sSZLZ+AKAiAAAiAAAiAAAiAAAiAAAiBwlsDw+Y9FxYKc+vufjz+drKJNVmyhblEApyAAAiAAAiAAAiAAAiAAAiAAAoGAPCc2o6ZmsqShRgFOUiUXesMJCIAACIAACIAACIAACIAACIDANH1fidHyRAmfJZ5QYgkFDkAABEAABEAABEAABEAABECgJvBdJcaPiRVCrO4FKSAAAiAAAiAAAiAAAiAAAiAAApnA/wc44FPKh0AQUAAAAABJRU5ErkJggg==;" vertex="1" parent="1">
          <mxGeometry x="-760" y="510" width="1155" height="379" as="geometry" />
        </mxCell>
        <mxCell id="bgxjPIGCzItHr8cQw2t1-12" value="cp /vendor/etc/tvconfig/pq_colortemp.ini" style="text;html=1;align=center;verticalAlign=middle;whiteSpace=wrap;rounded=0;" vertex="1" parent="1">
          <mxGeometry x="40" y="270" width="60" height="30" as="geometry" />
        </mxCell>
        <mxCell id="bgxjPIGCzItHr8cQw2t1-15" value="" style="edgeStyle=orthogonalEdgeStyle;rounded=0;orthogonalLoop=1;jettySize=auto;html=1;" edge="1" parent="1" source="bgxjPIGCzItHr8cQw2t1-13" target="bgxjPIGCzItHr8cQw2t1-14">
          <mxGeometry relative="1" as="geometry" />
        </mxCell>
        <mxCell id="bgxjPIGCzItHr8cQw2t1-13" value="工厂菜单设置&lt;div&gt;白平衡&lt;/div&gt;" style="strokeWidth=2;html=1;shape=mxgraph.flowchart.start_1;whiteSpace=wrap;" vertex="1" parent="1">
          <mxGeometry x="-770" y="80" width="100" height="60" as="geometry" />
        </mxCell>
        <mxCell id="bgxjPIGCzItHr8cQw2t1-17" value="" style="edgeStyle=orthogonalEdgeStyle;rounded=0;orthogonalLoop=1;jettySize=auto;html=1;" edge="1" parent="1" source="bgxjPIGCzItHr8cQw2t1-14" target="bgxjPIGCzItHr8cQw2t1-16">
          <mxGeometry relative="1" as="geometry" />
        </mxCell>
        <mxCell id="bgxjPIGCzItHr8cQw2t1-25" value="" style="edgeStyle=orthogonalEdgeStyle;rounded=0;orthogonalLoop=1;jettySize=auto;html=1;" edge="1" parent="1" source="bgxjPIGCzItHr8cQw2t1-14" target="bgxjPIGCzItHr8cQw2t1-24">
          <mxGeometry relative="1" as="geometry" />
        </mxCell>
        <mxCell id="bgxjPIGCzItHr8cQw2t1-14" value="&lt;div&gt;&lt;br&gt;&lt;/div&gt;&lt;div&gt;&amp;nbsp;下面字段是否被设置在xml文件中？&lt;/div&gt;&lt;div&gt;&amp;nbsp;&amp;lt;factory_wb_mode update=&quot;1&quot;/&amp;gt;&lt;br&gt;&lt;/div&gt;" style="rhombus;whiteSpace=wrap;html=1;strokeWidth=2;" vertex="1" parent="1">
          <mxGeometry x="-850" y="180" width="260" height="120" as="geometry" />
        </mxCell>
        <mxCell id="bgxjPIGCzItHr8cQw2t1-16" value="cp&lt;div&gt;&amp;nbsp;from&amp;nbsp;/vendor/etc/tvconfig/pq_colortemp.ini&lt;/div&gt;&lt;div style=&quot;text-align: left;&quot;&gt;&amp;nbsp;to&amp;nbsp;&lt;span style=&quot;background-color: initial;&quot;&gt;/Reserve0/&lt;/span&gt;&lt;span style=&quot;background-color: initial; text-align: center;&quot;&gt;pq_colortemp.ini&lt;/span&gt;&lt;/div&gt;" style="whiteSpace=wrap;html=1;strokeWidth=2;" vertex="1" parent="1">
          <mxGeometry x="-530" y="212.5" width="240" height="55" as="geometry" />
        </mxCell>
        <mxCell id="bgxjPIGCzItHr8cQw2t1-18" value="否" style="text;html=1;align=center;verticalAlign=middle;whiteSpace=wrap;rounded=0;" vertex="1" parent="1">
          <mxGeometry x="-590" y="240" width="60" height="30" as="geometry" />
        </mxCell>
        <mxCell id="bgxjPIGCzItHr8cQw2t1-20" value="&amp;nbsp;/data/vendor/tvconfig/&lt;div&gt;pqcontrol_custom_setting.xml&lt;/div&gt;&lt;div&gt;&lt;br&gt;&lt;/div&gt;" style="text;html=1;align=center;verticalAlign=middle;whiteSpace=wrap;rounded=0;" vertex="1" parent="1">
          <mxGeometry x="-810" y="200" width="170" height="40" as="geometry" />
        </mxCell>
        <mxCell id="bgxjPIGCzItHr8cQw2t1-24" value="数据写入&lt;div&gt;&lt;span style=&quot;text-align: left; background-color: initial;&quot;&gt;/Reserve0/&lt;/span&gt;&lt;span style=&quot;background-color: initial;&quot;&gt;pq_colortemp.ini&lt;/span&gt;&lt;br&gt;&lt;/div&gt;" style="whiteSpace=wrap;html=1;strokeWidth=2;" vertex="1" parent="1">
          <mxGeometry x="-810" y="340" width="180" height="60" as="geometry" />
        </mxCell>
      </root>
    </mxGraphModel>
  </diagram>
</mxfile>
